<svg version="1.1" viewBox="0.0 0.0 732.0813648293963 500.13385826771656" fill="none" stroke="none" stroke-linecap="square" stroke-miterlimit="10" xmlns:xlink="http://www.w3.org/1999/xlink" xmlns="http://www.w3.org/2000/svg"><clipPath id="p.0"><path d="m0 0l732.08136 0l0 500.13385l-732.08136 0l0 -500.13385z" clip-rule="nonzero"/></clipPath><g clip-path="url(#p.0)"><path fill="#000000" fill-opacity="0.0" d="m0 0l732.08136 0l0 500.13385l-732.08136 0z" fill-rule="evenodd"/><path fill="#f3f3f3" d="m0 298.39178l0 0c0 -19.436188 15.756131 -35.19232 35.192307 -35.19232l660.32404 0c9.333557 0 18.284851 3.7077637 24.884705 10.307587c6.5998535 6.5998535 10.307617 15.551147 10.307617 24.884735l0 140.76498c0 19.436188 -15.756165 35.19232 -35.19232 35.19232l-660.32404 0c-19.436176 0 -35.192307 -15.756134 -35.192307 -35.19232z" fill-rule="evenodd"/><path stroke="#595959" stroke-width="1.0" stroke-linejoin="round" stroke-linecap="butt" d="m0 298.39178l0 0c0 -19.436188 15.756131 -35.19232 35.192307 -35.19232l660.32404 0c9.333557 0 18.284851 3.7077637 24.884705 10.307587c6.5998535 6.5998535 10.307617 15.551147 10.307617 24.884735l0 140.76498c0 19.436188 -15.756165 35.19232 -35.19232 35.19232l-660.32404 0c-19.436176 0 -35.192307 -15.756134 -35.192307 -35.19232z" fill-rule="evenodd"/><path fill="#f3f3f3" d="m0 55.921963l0 0c0 -19.436172 15.756131 -35.192307 35.192307 -35.192307l660.32404 0c9.333557 0 18.284851 3.7077503 24.884705 10.307589c6.5998535 6.5998383 10.307617 15.551136 10.307617 24.884716l0 140.765c0 19.436172 -15.756165 35.192307 -35.19232 35.192307l-660.32404 0c-19.436176 0 -35.192307 -15.756134 -35.192307 -35.192307z" fill-rule="evenodd"/><path stroke="#595959" stroke-width="1.0" stroke-linejoin="round" stroke-linecap="butt" d="m0 55.921963l0 0c0 -19.436172 15.756131 -35.192307 35.192307 -35.192307l660.32404 0c9.333557 0 18.284851 3.7077503 24.884705 10.307589c6.5998535 6.5998383 10.307617 15.551136 10.307617 24.884716l0 140.765c0 19.436172 -15.756165 35.192307 -35.19232 35.192307l-660.32404 0c-19.436176 0 -35.192307 -15.756134 -35.192307 -35.192307z" fill-rule="evenodd"/><path fill="#d8eeff" d="m119.073494 59.0232l0 0c0 -5.836071 4.731064 -10.567139 10.567131 -10.567139l89.227936 0c2.8025818 0 5.4903717 1.1133194 7.4720917 3.0950432c1.98172 1.9817238 3.095047 4.6695175 3.095047 7.4720955l0 42.267296c0 5.836067 -4.731079 10.567139 -10.567139 10.567139l-89.227936 0c-5.836067 0 -10.567131 -4.7310715 -10.567131 -10.567139z" fill-rule="evenodd"/><path stroke="#595959" stroke-width="1.0" stroke-linejoin="round" stroke-linecap="butt" stroke-dasharray="1.0,3.0" d="m119.073494 59.0232l0 0c0 -5.836071 4.731064 -10.567139 10.567131 -10.567139l89.227936 0c2.8025818 0 5.4903717 1.1133194 7.4720917 3.0950432c1.98172 1.9817238 3.095047 4.6695175 3.095047 7.4720955l0 42.267296c0 5.836067 -4.731079 10.567139 -10.567139 10.567139l-89.227936 0c-5.836067 0 -10.567131 -4.7310715 -10.567131 -10.567139z" fill-rule="evenodd"/><path fill="#d8eeff" d="m306.86615 59.022522l0 0c0 -5.836071 4.7310486 -10.5671425 10.567139 -10.5671425l95.8421 0c2.8025818 0 5.4903564 1.1133232 7.4720764 3.0950432c1.98172 1.9817238 3.0950623 4.6695175 3.0950623 7.4720993l0 42.267296c0 5.836067 -4.731079 10.567139 -10.567139 10.567139l-95.8421 0l0 0c-5.83609 0 -10.567139 -4.7310715 -10.567139 -10.567139z" fill-rule="evenodd"/><path stroke="#595959" stroke-width="1.0" stroke-linejoin="round" stroke-linecap="butt" d="m306.86615 59.022522l0 0c0 -5.836071 4.7310486 -10.5671425 10.567139 -10.5671425l95.8421 0c2.8025818 0 5.4903564 1.1133232 7.4720764 3.0950432c1.98172 1.9817238 3.0950623 4.6695175 3.0950623 7.4720993l0 42.267296c0 5.836067 -4.731079 10.567139 -10.567139 10.567139l-95.8421 0l0 0c-5.83609 0 -10.567139 -4.7310715 -10.567139 -10.567139z" fill-rule="evenodd"/><path fill="#000000" d="m320.05673 84.30417l4.765625 -12.40625l1.765625 0l5.078125 12.40625l-1.859375 0l-1.453125 -3.75l-5.1875 0l-1.359375 3.75l-1.75 0zm3.578125 -5.09375l4.21875 0l-1.296875 -3.4375q-0.59375 -1.5625 -0.890625 -2.5625q-0.234375 1.1875 -0.65625 2.359375l-1.375 3.640625zm15.010834 1.796875l1.5 0.203125q-0.234375 1.546875 -1.25 2.421875q-1.015625 0.875 -2.484375 0.875q-1.84375 0 -2.96875 -1.203125q-1.125 -1.203125 -1.125 -3.453125q0 -1.46875 0.484375 -2.546875q0.484375 -1.09375 1.46875 -1.640625q0.984375 -0.546875 2.140625 -0.546875q1.46875 0 2.390625 0.75q0.9375 0.734375 1.203125 2.09375l-1.484375 0.21875q-0.203125 -0.890625 -0.75 -1.34375q-0.53125 -0.46875 -1.296875 -0.46875q-1.140625 0 -1.875 0.828125q-0.71875 0.828125 -0.71875 2.609375q0 1.8125 0.6875 2.640625q0.703125 0.8125 1.828125 0.8125q0.890625 0 1.484375 -0.546875q0.609375 -0.5625 0.765625 -1.703125zm8.6640625 0l1.5 0.203125q-0.234375 1.546875 -1.25 2.421875q-1.015625 0.875 -2.484375 0.875q-1.84375 0 -2.96875 -1.203125q-1.125 -1.203125 -1.125 -3.453125q0 -1.46875 0.484375 -2.546875q0.484375 -1.09375 1.46875 -1.640625q0.984375 -0.546875 2.140625 -0.546875q1.46875 0 2.390625 0.75q0.9375 0.734375 1.203125 2.09375l-1.484375 0.21875q-0.203125 -0.890625 -0.75 -1.34375q-0.53125 -0.46875 -1.296875 -0.46875q-1.140625 0 -1.875 0.828125q-0.71875 0.828125 -0.71875 2.609375q0 1.8125 0.6875 2.640625q0.703125 0.8125 1.828125 0.8125q0.890625 0 1.484375 -0.546875q0.609375 -0.5625 0.765625 -1.703125zm8.6953125 3.296875l0 -1.3125q-1.046875 1.515625 -2.84375 1.515625q-0.796875 0 -1.5 -0.296875q-0.6875 -0.3125 -1.015625 -0.765625q-0.328125 -0.46875 -0.46875 -1.140625q-0.09375 -0.4375 -0.09375 -1.421875l0 -5.5625l1.515625 0l0 4.984375q0 1.1875 0.09375 1.609375q0.15625 0.59375 0.609375 0.9375q0.46875 0.34375 1.15625 0.34375q0.6875 0 1.28125 -0.34375q0.609375 -0.359375 0.859375 -0.953125q0.25 -0.609375 0.25 -1.765625l0 -4.8125l1.515625 0l0 8.984375l-1.359375 0zm3.74646 0l0 -8.984375l1.359375 0l0 1.265625q0.421875 -0.671875 1.125 -1.0625q0.703125 -0.40625 1.609375 -0.40625q1.0 0 1.625 0.421875q0.640625 0.40625 0.90625 1.15625q1.0625 -1.578125 2.78125 -1.578125q1.328125 0 2.046875 0.75q0.71875 0.734375 0.71875 2.265625l0 6.171875l-1.515625 0l0 -5.65625q0 -0.921875 -0.15625 -1.3125q-0.140625 -0.40625 -0.53125 -0.65625q-0.375 -0.25 -0.90625 -0.25q-0.953125 0 -1.578125 0.640625q-0.625 0.625 -0.625 2.015625l0 5.21875l-1.515625 0l0 -5.84375q0 -1.015625 -0.375 -1.515625q-0.375 -0.515625 -1.21875 -0.515625q-0.640625 0 -1.1875 0.34375q-0.546875 0.34375 -0.796875 1.0q-0.234375 0.640625 -0.234375 1.875l0 4.65625l-1.53125 0zm20.325104 0l0 -1.3125q-1.046875 1.515625 -2.84375 1.515625q-0.796875 0 -1.5 -0.296875q-0.6875 -0.3125 -1.015625 -0.765625q-0.328125 -0.46875 -0.46875 -1.140625q-0.09375 -0.4375 -0.09375 -1.421875l0 -5.5625l1.515625 0l0 4.984375q0 1.1875 0.09375 1.609375q0.15625 0.59375 0.609375 0.9375q0.46875 0.34375 1.15625 0.34375q0.6875 0 1.28125 -0.34375q0.609375 -0.359375 0.859375 -0.953125q0.25 -0.609375 0.25 -1.765625l0 -4.8125l1.515625 0l0 8.984375l-1.359375 0zm3.71521 0l0 -12.40625l1.515625 0l0 12.40625l-1.515625 0zm9.740387 -1.109375q-0.84375 0.71875 -1.625 1.015625q-0.78125 0.296875 -1.671875 0.296875q-1.484375 0 -2.28125 -0.71875q-0.796875 -0.734375 -0.796875 -1.859375q0 -0.65625 0.296875 -1.203125q0.3125 -0.546875 0.796875 -0.875q0.484375 -0.328125 1.09375 -0.5q0.4375 -0.109375 1.34375 -0.21875q1.84375 -0.21875 2.71875 -0.53125q0.015625 -0.3125 0.015625 -0.390625q0 -0.9375 -0.4375 -1.3125q-0.578125 -0.515625 -1.734375 -0.515625q-1.078125 0 -1.59375 0.375q-0.5 0.375 -0.75 1.328125l-1.484375 -0.203125q0.203125 -0.953125 0.65625 -1.53125q0.46875 -0.59375 1.34375 -0.90625q0.890625 -0.328125 2.046875 -0.328125q1.15625 0 1.875 0.28125q0.71875 0.265625 1.046875 0.671875q0.34375 0.40625 0.484375 1.03125q0.078125 0.390625 0.078125 1.40625l0 2.03125q0 2.125 0.09375 2.6875q0.09375 0.5625 0.390625 1.078125l-1.59375 0q-0.234375 -0.46875 -0.3125 -1.109375zm-0.125 -3.40625q-0.828125 0.34375 -2.484375 0.578125q-0.9375 0.140625 -1.328125 0.3125q-0.390625 0.171875 -0.609375 0.5q-0.203125 0.3125 -0.203125 0.71875q0 0.609375 0.453125 1.015625q0.46875 0.40625 1.359375 0.40625q0.875 0 1.5625 -0.390625q0.6875 -0.390625 1.015625 -1.046875q0.234375 -0.515625 0.234375 -1.53125l0 -0.5625zm7.230835 3.15625l0.21875 1.34375q-0.640625 0.140625 -1.15625 0.140625q-0.828125 0 -1.28125 -0.265625q-0.453125 -0.265625 -0.640625 -0.6875q-0.1875 -0.4375 -0.1875 -1.796875l0 -5.171875l-1.125 0l0 -1.1875l1.125 0l0 -2.21875l1.515625 -0.921875l0 3.140625l1.53125 0l0 1.1875l-1.53125 0l0 5.25q0 0.65625 0.078125 0.84375q0.078125 0.1875 0.25 0.296875q0.1875 0.109375 0.53125 0.109375q0.25 0 0.671875 -0.0625zm7.6424255 -1.53125l1.5625 0.1875q-0.359375 1.390625 -1.375 2.15625q-1.0 0.75 -2.5625 0.75q-1.984375 0 -3.140625 -1.203125q-1.140625 -1.21875 -1.140625 -3.421875q0 -2.265625 1.15625 -3.515625q1.171875 -1.25 3.03125 -1.25q1.8125 0 2.953125 1.234375q1.140625 1.21875 1.140625 3.4375q0 0.140625 -0.015625 0.40625l-6.703125 0q0.09375 1.484375 0.84375 2.28125q0.75 0.78125 1.875 0.78125q0.84375 0 1.4375 -0.4375q0.59375 -0.4375 0.9375 -1.40625zm-5.0 -2.46875l5.015625 0q-0.109375 -1.125 -0.578125 -1.703125q-0.734375 -0.875 -1.890625 -0.875q-1.046875 0 -1.765625 0.703125q-0.703125 0.703125 -0.78125 1.875z" fill-rule="nonzero"/><path fill="#000000" fill-opacity="0.0" d="m229.4357 80.156845l77.41733 0" fill-rule="evenodd"/><path stroke="#595959" stroke-width="1.0" stroke-linejoin="round" stroke-linecap="butt" d="m229.4357 80.15685l73.990234 0" fill-rule="evenodd"/><path fill="#595959" stroke="#595959" stroke-width="1.0" stroke-linecap="butt" d="m303.42593 80.15685l-1.1245728 1.1245804l3.0897522 -1.1245804l-3.0897522 -1.124588z" fill-rule="evenodd"/><path fill="#d8eeff" d="m119.073494 154.22057l0 0c0 -5.8360596 4.731064 -10.567139 10.567131 -10.567139l89.227936 0c2.8025818 0 5.4903717 1.113327 7.4720917 3.095047c1.98172 1.98172 3.095047 4.669525 3.095047 7.4720917l0 42.267303c0 5.836075 -4.731079 10.567139 -10.567139 10.567139l-89.227936 0c-5.836067 0 -10.567131 -4.731064 -10.567131 -10.567139z" fill-rule="evenodd"/><path stroke="#595959" stroke-width="1.0" stroke-linejoin="round" stroke-linecap="butt" stroke-dasharray="1.0,3.0" d="m119.073494 154.22057l0 0c0 -5.8360596 4.731064 -10.567139 10.567131 -10.567139l89.227936 0c2.8025818 0 5.4903717 1.113327 7.4720917 3.095047c1.98172 1.98172 3.095047 4.669525 3.095047 7.4720917l0 42.267303c0 5.836075 -4.731079 10.567139 -10.567139 10.567139l-89.227936 0c-5.836067 0 -10.567131 -4.731064 -10.567131 -10.567139z" fill-rule="evenodd"/><path fill="#d8eeff" d="m306.86615 154.21945l0 0c0 -5.836075 4.7310486 -10.567139 10.567139 -10.567139l95.8421 0c2.8025818 0 5.4903564 1.113327 7.4720764 3.095047c1.98172 1.98172 3.0950623 4.66951 3.0950623 7.4720917l0 42.267303c0 5.8360596 -4.731079 10.567139 -10.567139 10.567139l-95.8421 0l0 0c-5.83609 0 -10.567139 -4.731079 -10.567139 -10.567139z" fill-rule="evenodd"/><path stroke="#595959" stroke-width="1.0" stroke-linejoin="round" stroke-linecap="butt" d="m306.86615 154.21945l0 0c0 -5.836075 4.7310486 -10.567139 10.567139 -10.567139l95.8421 0c2.8025818 0 5.4903564 1.113327 7.4720764 3.095047c1.98172 1.98172 3.0950623 4.66951 3.0950623 7.4720917l0 42.267303c0 5.8360596 -4.731079 10.567139 -10.567139 10.567139l-95.8421 0l0 0c-5.83609 0 -10.567139 -4.731079 -10.567139 -10.567139z" fill-rule="evenodd"/><path fill="#000000" d="m320.05673 179.5011l4.765625 -12.40625l1.765625 0l5.078125 12.40625l-1.859375 0l-1.453125 -3.75l-5.1875 0l-1.359375 3.75l-1.75 0zm3.578125 -5.09375l4.21875 0l-1.296875 -3.4375q-0.59375 -1.5625 -0.890625 -2.5625q-0.234375 1.1875 -0.65625 2.359375l-1.375 3.640625zm15.010834 1.796875l1.5 0.203125q-0.234375 1.546875 -1.25 2.421875q-1.015625 0.875 -2.484375 0.875q-1.84375 0 -2.96875 -1.203125q-1.125 -1.203125 -1.125 -3.453125q0 -1.46875 0.484375 -2.546875q0.484375 -1.09375 1.46875 -1.640625q0.984375 -0.546875 2.140625 -0.546875q1.46875 0 2.390625 0.75q0.9375 0.734375 1.203125 2.09375l-1.484375 0.21875q-0.203125 -0.890625 -0.75 -1.34375q-0.53125 -0.46875 -1.296875 -0.46875q-1.140625 0 -1.875 0.828125q-0.71875 0.828125 -0.71875 2.609375q0 1.8125 0.6875 2.640625q0.703125 0.8125 1.828125 0.8125q0.890625 0 1.484375 -0.546875q0.609375 -0.5625 0.765625 -1.703125zm8.6640625 0l1.5 0.203125q-0.234375 1.546875 -1.25 2.421875q-1.015625 0.875 -2.484375 0.875q-1.84375 0 -2.96875 -1.203125q-1.125 -1.203125 -1.125 -3.453125q0 -1.46875 0.484375 -2.546875q0.484375 -1.09375 1.46875 -1.640625q0.984375 -0.546875 2.140625 -0.546875q1.46875 0 2.390625 0.75q0.9375 0.734375 1.203125 2.09375l-1.484375 0.21875q-0.203125 -0.890625 -0.75 -1.34375q-0.53125 -0.46875 -1.296875 -0.46875q-1.140625 0 -1.875 0.828125q-0.71875 0.828125 -0.71875 2.609375q0 1.8125 0.6875 2.640625q0.703125 0.8125 1.828125 0.8125q0.890625 0 1.484375 -0.546875q0.609375 -0.5625 0.765625 -1.703125zm8.6953125 3.296875l0 -1.3125q-1.046875 1.515625 -2.84375 1.515625q-0.796875 0 -1.5 -0.296875q-0.6875 -0.3125 -1.015625 -0.765625q-0.328125 -0.46875 -0.46875 -1.140625q-0.09375 -0.4375 -0.09375 -1.421875l0 -5.5625l1.515625 0l0 4.984375q0 1.1875 0.09375 1.609375q0.15625 0.59375 0.609375 0.9375q0.46875 0.34375 1.15625 0.34375q0.6875 0 1.28125 -0.34375q0.609375 -0.359375 0.859375 -0.953125q0.25 -0.609375 0.25 -1.765625l0 -4.8125l1.515625 0l0 8.984375l-1.359375 0zm3.74646 0l0 -8.984375l1.359375 0l0 1.265625q0.421875 -0.671875 1.125 -1.0625q0.703125 -0.40625 1.609375 -0.40625q1.0 0 1.625 0.421875q0.640625 0.40625 0.90625 1.15625q1.0625 -1.578125 2.78125 -1.578125q1.328125 0 2.046875 0.75q0.71875 0.734375 0.71875 2.265625l0 6.171875l-1.515625 0l0 -5.65625q0 -0.921875 -0.15625 -1.3125q-0.140625 -0.40625 -0.53125 -0.65625q-0.375 -0.25 -0.90625 -0.25q-0.953125 0 -1.578125 0.640625q-0.625 0.625 -0.625 2.015625l0 5.21875l-1.515625 0l0 -5.84375q0 -1.015625 -0.375 -1.515625q-0.375 -0.515625 -1.21875 -0.515625q-0.640625 0 -1.1875 0.34375q-0.546875 0.34375 -0.796875 1.0q-0.234375 0.640625 -0.234375 1.875l0 4.65625l-1.53125 0zm20.325104 0l0 -1.3125q-1.046875 1.515625 -2.84375 1.515625q-0.796875 0 -1.5 -0.296875q-0.6875 -0.3125 -1.015625 -0.765625q-0.328125 -0.46875 -0.46875 -1.140625q-0.09375 -0.4375 -0.09375 -1.421875l0 -5.5625l1.515625 0l0 4.984375q0 1.1875 0.09375 1.609375q0.15625 0.59375 0.609375 0.9375q0.46875 0.34375 1.15625 0.34375q0.6875 0 1.28125 -0.34375q0.609375 -0.359375 0.859375 -0.953125q0.25 -0.609375 0.25 -1.765625l0 -4.8125l1.515625 0l0 8.984375l-1.359375 0zm3.71521 0l0 -12.40625l1.515625 0l0 12.40625l-1.515625 0zm9.740387 -1.109375q-0.84375 0.71875 -1.625 1.015625q-0.78125 0.296875 -1.671875 0.296875q-1.484375 0 -2.28125 -0.71875q-0.796875 -0.734375 -0.796875 -1.859375q0 -0.65625 0.296875 -1.203125q0.3125 -0.546875 0.796875 -0.875q0.484375 -0.328125 1.09375 -0.5q0.4375 -0.109375 1.34375 -0.21875q1.84375 -0.21875 2.71875 -0.53125q0.015625 -0.3125 0.015625 -0.390625q0 -0.9375 -0.4375 -1.3125q-0.578125 -0.515625 -1.734375 -0.515625q-1.078125 0 -1.59375 0.375q-0.5 0.375 -0.75 1.328125l-1.484375 -0.203125q0.203125 -0.953125 0.65625 -1.53125q0.46875 -0.59375 1.34375 -0.90625q0.890625 -0.328125 2.046875 -0.328125q1.15625 0 1.875 0.28125q0.71875 0.265625 1.046875 0.671875q0.34375 0.40625 0.484375 1.03125q0.078125 0.390625 0.078125 1.40625l0 2.03125q0 2.125 0.09375 2.6875q0.09375 0.5625 0.390625 1.078125l-1.59375 0q-0.234375 -0.46875 -0.3125 -1.109375zm-0.125 -3.40625q-0.828125 0.34375 -2.484375 0.578125q-0.9375 0.140625 -1.328125 0.3125q-0.390625 0.171875 -0.609375 0.5q-0.203125 0.3125 -0.203125 0.71875q0 0.609375 0.453125 1.015625q0.46875 0.40625 1.359375 0.40625q0.875 0 1.5625 -0.390625q0.6875 -0.390625 1.015625 -1.046875q0.234375 -0.515625 0.234375 -1.53125l0 -0.5625zm7.230835 3.15625l0.21875 1.34375q-0.640625 0.140625 -1.15625 0.140625q-0.828125 0 -1.28125 -0.265625q-0.453125 -0.265625 -0.640625 -0.6875q-0.1875 -0.4375 -0.1875 -1.796875l0 -5.171875l-1.125 0l0 -1.1875l1.125 0l0 -2.21875l1.515625 -0.921875l0 3.140625l1.53125 0l0 1.1875l-1.53125 0l0 5.25q0 0.65625 0.078125 0.84375q0.078125 0.1875 0.25 0.296875q0.1875 0.109375 0.53125 0.109375q0.25 0 0.671875 -0.0625zm7.6424255 -1.53125l1.5625 0.1875q-0.359375 1.390625 -1.375 2.15625q-1.0 0.75 -2.5625 0.75q-1.984375 0 -3.140625 -1.203125q-1.140625 -1.21875 -1.140625 -3.421875q0 -2.265625 1.15625 -3.515625q1.171875 -1.25 3.03125 -1.25q1.8125 0 2.953125 1.234375q1.140625 1.21875 1.140625 3.4375q0 0.140625 -0.015625 0.40625l-6.703125 0q0.09375 1.484375 0.84375 2.28125q0.75 0.78125 1.875 0.78125q0.84375 0 1.4375 -0.4375q0.59375 -0.4375 0.9375 -1.40625zm-5.0 -2.46875l5.015625 0q-0.109375 -1.125 -0.578125 -1.703125q-0.734375 -0.875 -1.890625 -0.875q-1.046875 0 -1.765625 0.703125q-0.703125 0.703125 -0.78125 1.875z" fill-rule="nonzero"/><path fill="#000000" fill-opacity="0.0" d="m229.4357 175.35422l77.41733 0" fill-rule="evenodd"/><path stroke="#595959" stroke-width="1.0" stroke-linejoin="round" stroke-linecap="butt" d="m229.4357 175.35423l73.990234 0" fill-rule="evenodd"/><path fill="#595959" stroke="#595959" stroke-width="1.0" stroke-linecap="butt" d="m303.42593 175.35423l-1.1245728 1.1245728l3.0897522 -1.1245728l-3.0897522 -1.124588z" fill-rule="evenodd"/><path fill="#000000" fill-opacity="0.0" d="m229.43562 154.3603l77.41731 -50.299202" fill-rule="evenodd"/><path stroke="#595959" stroke-width="1.0" stroke-linejoin="round" stroke-linecap="butt" d="m229.43561 154.36032l74.54355 -48.432068" fill-rule="evenodd"/><path fill="#595959" stroke="#595959" stroke-width="1.0" stroke-linecap="butt" d="m303.97916 105.92825l-0.33035278 1.5557175l1.978241 -2.6263885l-3.2036133 0.7403412z" fill-rule="evenodd"/><path fill="#000000" fill-opacity="0.0" d="m229.43562 102.61228l77.41731 50.299217" fill-rule="evenodd"/><path stroke="#595959" stroke-width="1.0" stroke-linejoin="round" stroke-linecap="butt" d="m229.43561 102.61229l74.54355 48.432068" fill-rule="evenodd"/><path fill="#595959" stroke="#595959" stroke-width="1.0" stroke-linecap="butt" d="m303.97916 151.04436l-1.5557251 0.33032227l3.2036133 0.7403412l-1.978241 -2.6263885z" fill-rule="evenodd"/><path fill="#d8eeff" d="m503.34607 59.0232l0 0c0 -5.836071 4.731079 -10.567139 10.567139 -10.567139l89.22797 0c2.8025513 0 5.4903564 1.1133194 7.472046 3.0950432c1.9817505 1.9817238 3.0950928 4.6695175 3.0950928 7.4720955l0 42.267296c0 5.836067 -4.731079 10.567139 -10.567139 10.567139l-89.22797 0c-5.8360596 0 -10.567139 -4.7310715 -10.567139 -10.567139z" fill-rule="evenodd"/><path stroke="#595959" stroke-width="1.0" stroke-linejoin="round" stroke-linecap="butt" d="m503.34607 59.0232l0 0c0 -5.836071 4.731079 -10.567139 10.567139 -10.567139l89.22797 0c2.8025513 0 5.4903564 1.1133194 7.472046 3.0950432c1.9817505 1.9817238 3.0950928 4.6695175 3.0950928 7.4720955l0 42.267296c0 5.836067 -4.731079 10.567139 -10.567139 10.567139l-89.22797 0c-5.8360596 0 -10.567139 -4.7310715 -10.567139 -10.567139z" fill-rule="evenodd"/><path fill="#000000" d="m534.0415 81.953094l1.640625 0.40625q-0.515625 2.03125 -1.859375 3.09375q-1.34375 1.0625 -3.28125 1.0625q-2.0 0 -3.265625 -0.8125q-1.25 -0.828125 -1.90625 -2.375q-0.65625 -1.546875 -0.65625 -3.328125q0 -1.9375 0.734375 -3.375q0.75 -1.453125 2.109375 -2.1875q1.375 -0.75 3.015625 -0.75q1.859375 0 3.125 0.953125q1.28125 0.9375 1.765625 2.65625l-1.609375 0.375q-0.4375 -1.34375 -1.265625 -1.953125q-0.8125 -0.625 -2.046875 -0.625q-1.4375 0 -2.40625 0.6875q-0.953125 0.671875 -1.34375 1.828125q-0.375 1.15625 -0.375 2.390625q0 1.578125 0.453125 2.765625q0.46875 1.171875 1.4375 1.765625q0.96875 0.578125 2.109375 0.578125q1.375 0 2.328125 -0.796875q0.953125 -0.796875 1.296875 -2.359375zm2.904419 -0.15625q0 -2.484375 1.390625 -3.6875q1.15625 -1.0 2.8125 -1.0q1.859375 0 3.03125 1.21875q1.1875 1.203125 1.1875 3.34375q0 1.734375 -0.53125 2.734375q-0.515625 1.0 -1.515625 1.546875q-0.984375 0.546875 -2.171875 0.546875q-1.875 0 -3.046875 -1.203125q-1.15625 -1.21875 -1.15625 -3.5zm1.5625 0q0 1.734375 0.75 2.59375q0.75 0.859375 1.890625 0.859375q1.140625 0 1.890625 -0.859375q0.75 -0.875 0.75 -2.640625q0 -1.65625 -0.75 -2.515625q-0.75 -0.859375 -1.890625 -0.859375q-1.140625 0 -1.890625 0.859375q-0.75 0.84375 -0.75 2.5625zm8.637085 4.5l0 -8.984375l1.359375 0l0 1.265625q0.421875 -0.671875 1.125 -1.0625q0.703125 -0.40625 1.609375 -0.40625q1.0 0 1.625 0.421875q0.640625 0.40625 0.90625 1.15625q1.0625 -1.578125 2.78125 -1.578125q1.328125 0 2.046875 0.75q0.71875 0.734375 0.71875 2.265625l0 6.171875l-1.515625 0l0 -5.65625q0 -0.921875 -0.15625 -1.3125q-0.140625 -0.40625 -0.53125 -0.65625q-0.375 -0.25 -0.90625 -0.25q-0.953125 0 -1.578125 0.640625q-0.625 0.625 -0.625 2.015625l0 5.21875l-1.515625 0l0 -5.84375q0 -1.015625 -0.375 -1.515625q-0.375 -0.515625 -1.21875 -0.515625q-0.640625 0 -1.1875 0.34375q-0.546875 0.34375 -0.796875 1.0q-0.234375 0.640625 -0.234375 1.875l0 4.65625l-1.53125 0zm15.840759 0l-1.40625 0l0 -12.40625l1.515625 0l0 4.421875q0.96875 -1.203125 2.46875 -1.203125q0.828125 0 1.5625 0.34375q0.734375 0.328125 1.21875 0.9375q0.484375 0.59375 0.75 1.453125q0.265625 0.859375 0.265625 1.828125q0 2.3125 -1.140625 3.578125q-1.140625 1.25 -2.734375 1.25q-1.59375 0 -2.5 -1.328125l0 1.125zm-0.015625 -4.5625q0 1.625 0.4375 2.34375q0.71875 1.171875 1.953125 1.171875q1.0 0 1.71875 -0.859375q0.734375 -0.875 0.734375 -2.59375q0 -1.765625 -0.703125 -2.59375q-0.703125 -0.84375 -1.6875 -0.84375q-1.0 0 -1.734375 0.875q-0.71875 0.859375 -0.71875 2.5zm8.262085 -6.09375l0 -1.75l1.515625 0l0 1.75l-1.515625 0zm0 10.65625l0 -8.984375l1.515625 0l0 8.984375l-1.515625 0zm3.8341064 0l0 -8.984375l1.375 0l0 1.28125q0.984375 -1.484375 2.859375 -1.484375q0.8125 0 1.484375 0.296875q0.6875 0.28125 1.015625 0.765625q0.34375 0.46875 0.484375 1.125q0.078125 0.421875 0.078125 1.46875l0 5.53125l-1.515625 0l0 -5.46875q0 -0.921875 -0.1875 -1.375q-0.171875 -0.46875 -0.625 -0.75q-0.453125 -0.28125 -1.0625 -0.28125q-0.96875 0 -1.671875 0.625q-0.703125 0.609375 -0.703125 2.34375l0 4.90625l-1.53125 0zm15.793335 -2.890625l1.5625 0.1875q-0.359375 1.390625 -1.375 2.15625q-1.0 0.75 -2.5625 0.75q-1.984375 0 -3.140625 -1.203125q-1.140625 -1.21875 -1.140625 -3.421875q0 -2.265625 1.15625 -3.515625q1.171875 -1.25 3.03125 -1.25q1.8125 0 2.953125 1.234375q1.140625 1.21875 1.140625 3.4375q0 0.140625 -0.015625 0.40625l-6.703125 0q0.09375 1.484375 0.84375 2.28125q0.75 0.78125 1.875 0.78125q0.84375 0 1.4375 -0.4375q0.59375 -0.4375 0.9375 -1.40625zm-5.0 -2.46875l5.015625 0q-0.109375 -1.125 -0.578125 -1.703125q-0.734375 -0.875 -1.890625 -0.875q-1.046875 0 -1.765625 0.703125q-0.703125 0.703125 -0.78125 1.875z" fill-rule="nonzero"/><path fill="#d8eeff" d="m503.34607 154.22057l0 0c0 -5.8360596 4.731079 -10.567139 10.567139 -10.567139l89.22797 0c2.8025513 0 5.4903564 1.113327 7.472046 3.095047c1.9817505 1.98172 3.0950928 4.669525 3.0950928 7.4720917l0 42.267303c0 5.836075 -4.731079 10.567139 -10.567139 10.567139l-89.22797 0c-5.8360596 0 -10.567139 -4.731064 -10.567139 -10.567139z" fill-rule="evenodd"/><path stroke="#595959" stroke-width="1.0" stroke-linejoin="round" stroke-linecap="butt" d="m503.34607 154.22057l0 0c0 -5.8360596 4.731079 -10.567139 10.567139 -10.567139l89.22797 0c2.8025513 0 5.4903564 1.113327 7.472046 3.095047c1.9817505 1.98172 3.0950928 4.669525 3.0950928 7.4720917l0 42.267303c0 5.836075 -4.731079 10.567139 -10.567139 10.567139l-89.22797 0c-5.8360596 0 -10.567139 -4.731064 -10.567139 -10.567139z" fill-rule="evenodd"/><path fill="#000000" d="m534.0415 177.15047l1.640625 0.40625q-0.515625 2.03125 -1.859375 3.09375q-1.34375 1.0625 -3.28125 1.0625q-2.0 0 -3.265625 -0.8125q-1.25 -0.828125 -1.90625 -2.375q-0.65625 -1.546875 -0.65625 -3.328125q0 -1.9375 0.734375 -3.375q0.75 -1.453125 2.109375 -2.1875q1.375 -0.75 3.015625 -0.75q1.859375 0 3.125 0.953125q1.28125 0.9375 1.765625 2.65625l-1.609375 0.375q-0.4375 -1.34375 -1.265625 -1.953125q-0.8125 -0.625 -2.046875 -0.625q-1.4375 0 -2.40625 0.6875q-0.953125 0.671875 -1.34375 1.828125q-0.375 1.15625 -0.375 2.390625q0 1.578125 0.453125 2.765625q0.46875 1.171875 1.4375 1.765625q0.96875 0.578125 2.109375 0.578125q1.375 0 2.328125 -0.796875q0.953125 -0.796875 1.296875 -2.359375zm2.904419 -0.15625q0 -2.484375 1.390625 -3.6875q1.15625 -1.0 2.8125 -1.0q1.859375 0 3.03125 1.21875q1.1875 1.203125 1.1875 3.34375q0 1.734375 -0.53125 2.734375q-0.515625 1.0 -1.515625 1.546875q-0.984375 0.546875 -2.171875 0.546875q-1.875 0 -3.046875 -1.203125q-1.15625 -1.21875 -1.15625 -3.5zm1.5625 0q0 1.734375 0.75 2.59375q0.75 0.859375 1.890625 0.859375q1.140625 0 1.890625 -0.859375q0.75 -0.875 0.75 -2.640625q0 -1.65625 -0.75 -2.515625q-0.75 -0.859375 -1.890625 -0.859375q-1.140625 0 -1.890625 0.859375q-0.75 0.84375 -0.75 2.5625zm8.637085 4.5l0 -8.984375l1.359375 0l0 1.265625q0.421875 -0.671875 1.125 -1.0625q0.703125 -0.40625 1.609375 -0.40625q1.0 0 1.625 0.421875q0.640625 0.40625 0.90625 1.15625q1.0625 -1.578125 2.78125 -1.578125q1.328125 0 2.046875 0.75q0.71875 0.734375 0.71875 2.265625l0 6.171875l-1.515625 0l0 -5.65625q0 -0.921875 -0.15625 -1.3125q-0.140625 -0.40625 -0.53125 -0.65625q-0.375 -0.25 -0.90625 -0.25q-0.953125 0 -1.578125 0.640625q-0.625 0.625 -0.625 2.015625l0 5.21875l-1.515625 0l0 -5.84375q0 -1.015625 -0.375 -1.515625q-0.375 -0.515625 -1.21875 -0.515625q-0.640625 0 -1.1875 0.34375q-0.546875 0.34375 -0.796875 1.0q-0.234375 0.640625 -0.234375 1.875l0 4.65625l-1.53125 0zm15.840759 0l-1.40625 0l0 -12.40625l1.515625 0l0 4.421875q0.96875 -1.203125 2.46875 -1.203125q0.828125 0 1.5625 0.34375q0.734375 0.328125 1.21875 0.9375q0.484375 0.59375 0.75 1.453125q0.265625 0.859375 0.265625 1.828125q0 2.3125 -1.140625 3.578125q-1.140625 1.25 -2.734375 1.25q-1.59375 0 -2.5 -1.328125l0 1.125zm-0.015625 -4.5625q0 1.625 0.4375 2.34375q0.71875 1.171875 1.953125 1.171875q1.0 0 1.71875 -0.859375q0.734375 -0.875 0.734375 -2.59375q0 -1.765625 -0.703125 -2.59375q-0.703125 -0.84375 -1.6875 -0.84375q-1.0 0 -1.734375 0.875q-0.71875 0.859375 -0.71875 2.5zm8.262085 -6.09375l0 -1.75l1.515625 0l0 1.75l-1.515625 0zm0 10.65625l0 -8.984375l1.515625 0l0 8.984375l-1.515625 0zm3.8341064 0l0 -8.984375l1.375 0l0 1.28125q0.984375 -1.484375 2.859375 -1.484375q0.8125 0 1.484375 0.296875q0.6875 0.28125 1.015625 0.765625q0.34375 0.46875 0.484375 1.125q0.078125 0.421875 0.078125 1.46875l0 5.53125l-1.515625 0l0 -5.46875q0 -0.921875 -0.1875 -1.375q-0.171875 -0.46875 -0.625 -0.75q-0.453125 -0.28125 -1.0625 -0.28125q-0.96875 0 -1.671875 0.625q-0.703125 0.609375 -0.703125 2.34375l0 4.90625l-1.53125 0zm15.793335 -2.890625l1.5625 0.1875q-0.359375 1.390625 -1.375 2.15625q-1.0 0.75 -2.5625 0.75q-1.984375 0 -3.140625 -1.203125q-1.140625 -1.21875 -1.140625 -3.421875q0 -2.265625 1.15625 -3.515625q1.171875 -1.25 3.03125 -1.25q1.8125 0 2.953125 1.234375q1.140625 1.21875 1.140625 3.4375q0 0.140625 -0.015625 0.40625l-6.703125 0q0.09375 1.484375 0.84375 2.28125q0.75 0.78125 1.875 0.78125q0.84375 0 1.4375 -0.4375q0.59375 -0.4375 0.9375 -1.40625zm-5.0 -2.46875l5.015625 0q-0.109375 -1.125 -0.578125 -1.703125q-0.734375 -0.875 -1.890625 -0.875q-1.046875 0 -1.765625 0.703125q-0.703125 0.703125 -0.78125 1.875z" fill-rule="nonzero"/><path fill="#000000" fill-opacity="0.0" d="m423.84253 80.156166l79.49606 0" fill-rule="evenodd"/><path stroke="#595959" stroke-width="1.0" stroke-linejoin="round" stroke-linecap="butt" d="m423.84253 80.156166l76.06897 0" fill-rule="evenodd"/><path fill="#595959" stroke="#595959" stroke-width="1.0" stroke-linecap="butt" d="m499.9115 80.156166l-1.1245728 1.124588l3.0897522 -1.124588l-3.0897522 -1.1245804z" fill-rule="evenodd"/><path fill="#000000" fill-opacity="0.0" d="m423.84253 175.3531l79.49606 0" fill-rule="evenodd"/><path stroke="#595959" stroke-width="1.0" stroke-linejoin="round" stroke-linecap="butt" d="m423.84253 175.3531l76.06897 0" fill-rule="evenodd"/><path fill="#595959" stroke="#595959" stroke-width="1.0" stroke-linecap="butt" d="m499.9115 175.3531l-1.1245728 1.1245728l3.0897522 -1.1245728l-3.0897522 -1.124588z" fill-rule="evenodd"/><path fill="#000000" fill-opacity="0.0" d="m422.67847 150.01968l81.322845 -47.433067" fill-rule="evenodd"/><path stroke="#595959" stroke-width="1.0" stroke-linejoin="round" stroke-linecap="butt" d="m422.67847 150.01968l78.36249 -45.706406" fill-rule="evenodd"/><path fill="#595959" stroke="#595959" stroke-width="1.0" stroke-linecap="butt" d="m501.041 104.31328l-0.40481567 1.5380173l2.102356 -2.5281296l-3.2355652 0.58529663z" fill-rule="evenodd"/><path fill="#000000" fill-opacity="0.0" d="m424.05118 101.74672l79.968506 49.70079" fill-rule="evenodd"/><path stroke="#595959" stroke-width="1.0" stroke-linejoin="round" stroke-linecap="butt" d="m424.05118 101.74672l77.0578 47.891754" fill-rule="evenodd"/><path fill="#595959" stroke="#595959" stroke-width="1.0" stroke-linecap="butt" d="m501.10895 149.63847l-1.5487671 0.3615265l3.217865 0.675827l-2.0306091 -2.5861206z" fill-rule="evenodd"/><path fill="#d8eeff" d="m503.34607 300.0232l0 0c0 -5.8360596 4.731079 -10.567139 10.567139 -10.567139l89.22797 0c2.8025513 0 5.4903564 1.1133118 7.472046 3.0950623c1.9817505 1.98172 3.0950928 4.6694946 3.0950928 7.4720764l0 42.267303c0 5.8360596 -4.731079 10.567139 -10.567139 10.567139l-89.22797 0c-5.8360596 0 -10.567139 -4.731079 -10.567139 -10.567139z" fill-rule="evenodd"/><path stroke="#595959" stroke-width="1.0" stroke-linejoin="round" stroke-linecap="butt" d="m503.34607 300.0232l0 0c0 -5.8360596 4.731079 -10.567139 10.567139 -10.567139l89.22797 0c2.8025513 0 5.4903564 1.1133118 7.472046 3.0950623c1.9817505 1.98172 3.0950928 4.6694946 3.0950928 7.4720764l0 42.267303c0 5.8360596 -4.731079 10.567139 -10.567139 10.567139l-89.22797 0c-5.8360596 0 -10.567139 -4.731079 -10.567139 -10.567139z" fill-rule="evenodd"/><path fill="#000000" d="m534.0415 322.9531l1.640625 0.40625q-0.515625 2.03125 -1.859375 3.09375q-1.34375 1.0625 -3.28125 1.0625q-2.0 0 -3.265625 -0.8125q-1.25 -0.828125 -1.90625 -2.375q-0.65625 -1.546875 -0.65625 -3.328125q0 -1.9375 0.734375 -3.375q0.75 -1.453125 2.109375 -2.1875q1.375 -0.75 3.015625 -0.75q1.859375 0 3.125 0.953125q1.28125 0.9375 1.765625 2.65625l-1.609375 0.375q-0.4375 -1.34375 -1.265625 -1.953125q-0.8125 -0.625 -2.046875 -0.625q-1.4375 0 -2.40625 0.6875q-0.953125 0.671875 -1.34375 1.828125q-0.375 1.15625 -0.375 2.390625q0 1.578125 0.453125 2.765625q0.46875 1.171875 1.4375 1.765625q0.96875 0.578125 2.109375 0.578125q1.375 0 2.328125 -0.796875q0.953125 -0.796875 1.296875 -2.359375zm2.904419 -0.15625q0 -2.484375 1.390625 -3.6875q1.15625 -1.0 2.8125 -1.0q1.859375 0 3.03125 1.21875q1.1875 1.203125 1.1875 3.34375q0 1.734375 -0.53125 2.734375q-0.515625 1.0 -1.515625 1.546875q-0.984375 0.546875 -2.171875 0.546875q-1.875 0 -3.046875 -1.203125q-1.15625 -1.21875 -1.15625 -3.5zm1.5625 0q0 1.734375 0.75 2.59375q0.75 0.859375 1.890625 0.859375q1.140625 0 1.890625 -0.859375q0.75 -0.875 0.75 -2.640625q0 -1.65625 -0.75 -2.515625q-0.75 -0.859375 -1.890625 -0.859375q-1.140625 0 -1.890625 0.859375q-0.75 0.84375 -0.75 2.5625zm8.637085 4.5l0 -8.984375l1.359375 0l0 1.265625q0.421875 -0.671875 1.125 -1.0625q0.703125 -0.40625 1.609375 -0.40625q1.0 0 1.625 0.421875q0.640625 0.40625 0.90625 1.15625q1.0625 -1.578125 2.78125 -1.578125q1.328125 0 2.046875 0.75q0.71875 0.734375 0.71875 2.265625l0 6.171875l-1.515625 0l0 -5.65625q0 -0.921875 -0.15625 -1.3125q-0.140625 -0.40625 -0.53125 -0.65625q-0.375 -0.25 -0.90625 -0.25q-0.953125 0 -1.578125 0.640625q-0.625 0.625 -0.625 2.015625l0 5.21875l-1.515625 0l0 -5.84375q0 -1.015625 -0.375 -1.515625q-0.375 -0.515625 -1.21875 -0.515625q-0.640625 0 -1.1875 0.34375q-0.546875 0.34375 -0.796875 1.0q-0.234375 0.640625 -0.234375 1.875l0 4.65625l-1.53125 0zm15.840759 0l-1.40625 0l0 -12.40625l1.515625 0l0 4.421875q0.96875 -1.203125 2.46875 -1.203125q0.828125 0 1.5625 0.34375q0.734375 0.328125 1.21875 0.9375q0.484375 0.59375 0.75 1.453125q0.265625 0.859375 0.265625 1.828125q0 2.3125 -1.140625 3.578125q-1.140625 1.25 -2.734375 1.25q-1.59375 0 -2.5 -1.328125l0 1.125zm-0.015625 -4.5625q0 1.625 0.4375 2.34375q0.71875 1.171875 1.953125 1.171875q1.0 0 1.71875 -0.859375q0.734375 -0.875 0.734375 -2.59375q0 -1.765625 -0.703125 -2.59375q-0.703125 -0.84375 -1.6875 -0.84375q-1.0 0 -1.734375 0.875q-0.71875 0.859375 -0.71875 2.5zm8.262085 -6.09375l0 -1.75l1.515625 0l0 1.75l-1.515625 0zm0 10.65625l0 -8.984375l1.515625 0l0 8.984375l-1.515625 0zm3.8341064 0l0 -8.984375l1.375 0l0 1.28125q0.984375 -1.484375 2.859375 -1.484375q0.8125 0 1.484375 0.296875q0.6875 0.28125 1.015625 0.765625q0.34375 0.46875 0.484375 1.125q0.078125 0.421875 0.078125 1.46875l0 5.53125l-1.515625 0l0 -5.46875q0 -0.921875 -0.1875 -1.375q-0.171875 -0.46875 -0.625 -0.75q-0.453125 -0.28125 -1.0625 -0.28125q-0.96875 0 -1.671875 0.625q-0.703125 0.609375 -0.703125 2.34375l0 4.90625l-1.53125 0zm15.793335 -2.890625l1.5625 0.1875q-0.359375 1.390625 -1.375 2.15625q-1.0 0.75 -2.5625 0.75q-1.984375 0 -3.140625 -1.203125q-1.140625 -1.21875 -1.140625 -3.421875q0 -2.265625 1.15625 -3.515625q1.171875 -1.25 3.03125 -1.25q1.8125 0 2.953125 1.234375q1.140625 1.21875 1.140625 3.4375q0 0.140625 -0.015625 0.40625l-6.703125 0q0.09375 1.484375 0.84375 2.28125q0.75 0.78125 1.875 0.78125q0.84375 0 1.4375 -0.4375q0.59375 -0.4375 0.9375 -1.40625zm-5.0 -2.46875l5.015625 0q-0.109375 -1.125 -0.578125 -1.703125q-0.734375 -0.875 -1.890625 -0.875q-1.046875 0 -1.765625 0.703125q-0.703125 0.703125 -0.78125 1.875z" fill-rule="nonzero"/><path fill="#d8eeff" d="m503.34607 395.22058l0 0c0 -5.83609 4.731079 -10.567139 10.567139 -10.567139l89.22797 0c2.8025513 0 5.4903564 1.1133118 7.472046 3.0950317c1.9817505 1.98172 3.0950928 4.669525 3.0950928 7.472107l0 42.267273c0 5.83609 -4.731079 10.567139 -10.567139 10.567139l-89.22797 0c-5.8360596 0 -10.567139 -4.7310486 -10.567139 -10.567139z" fill-rule="evenodd"/><path stroke="#595959" stroke-width="1.0" stroke-linejoin="round" stroke-linecap="butt" d="m503.34607 395.22058l0 0c0 -5.83609 4.731079 -10.567139 10.567139 -10.567139l89.22797 0c2.8025513 0 5.4903564 1.1133118 7.472046 3.0950317c1.9817505 1.98172 3.0950928 4.669525 3.0950928 7.472107l0 42.267273c0 5.83609 -4.731079 10.567139 -10.567139 10.567139l-89.22797 0c-5.8360596 0 -10.567139 -4.7310486 -10.567139 -10.567139z" fill-rule="evenodd"/><path fill="#000000" d="m534.0415 418.15048l1.640625 0.40625q-0.515625 2.03125 -1.859375 3.09375q-1.34375 1.0625 -3.28125 1.0625q-2.0 0 -3.265625 -0.8125q-1.25 -0.828125 -1.90625 -2.375q-0.65625 -1.546875 -0.65625 -3.328125q0 -1.9375 0.734375 -3.375q0.75 -1.453125 2.109375 -2.1875q1.375 -0.75 3.015625 -0.75q1.859375 0 3.125 0.953125q1.28125 0.9375 1.765625 2.65625l-1.609375 0.375q-0.4375 -1.34375 -1.265625 -1.953125q-0.8125 -0.625 -2.046875 -0.625q-1.4375 0 -2.40625 0.6875q-0.953125 0.671875 -1.34375 1.828125q-0.375 1.15625 -0.375 2.390625q0 1.578125 0.453125 2.765625q0.46875 1.171875 1.4375 1.765625q0.96875 0.578125 2.109375 0.578125q1.375 0 2.328125 -0.796875q0.953125 -0.796875 1.296875 -2.359375zm2.904419 -0.15625q0 -2.484375 1.390625 -3.6875q1.15625 -1.0 2.8125 -1.0q1.859375 0 3.03125 1.21875q1.1875 1.203125 1.1875 3.34375q0 1.734375 -0.53125 2.734375q-0.515625 1.0 -1.515625 1.546875q-0.984375 0.546875 -2.171875 0.546875q-1.875 0 -3.046875 -1.203125q-1.15625 -1.21875 -1.15625 -3.5zm1.5625 0q0 1.734375 0.75 2.59375q0.75 0.859375 1.890625 0.859375q1.140625 0 1.890625 -0.859375q0.75 -0.875 0.75 -2.640625q0 -1.65625 -0.75 -2.515625q-0.75 -0.859375 -1.890625 -0.859375q-1.140625 0 -1.890625 0.859375q-0.75 0.84375 -0.75 2.5625zm8.637085 4.5l0 -8.984375l1.359375 0l0 1.265625q0.421875 -0.671875 1.125 -1.0625q0.703125 -0.40625 1.609375 -0.40625q1.0 0 1.625 0.421875q0.640625 0.40625 0.90625 1.15625q1.0625 -1.578125 2.78125 -1.578125q1.328125 0 2.046875 0.75q0.71875 0.734375 0.71875 2.265625l0 6.171875l-1.515625 0l0 -5.65625q0 -0.921875 -0.15625 -1.3125q-0.140625 -0.40625 -0.53125 -0.65625q-0.375 -0.25 -0.90625 -0.25q-0.953125 0 -1.578125 0.640625q-0.625 0.625 -0.625 2.015625l0 5.21875l-1.515625 0l0 -5.84375q0 -1.015625 -0.375 -1.515625q-0.375 -0.515625 -1.21875 -0.515625q-0.640625 0 -1.1875 0.34375q-0.546875 0.34375 -0.796875 1.0q-0.234375 0.640625 -0.234375 1.875l0 4.65625l-1.53125 0zm15.840759 0l-1.40625 0l0 -12.40625l1.515625 0l0 4.421875q0.96875 -1.203125 2.46875 -1.203125q0.828125 0 1.5625 0.34375q0.734375 0.328125 1.21875 0.9375q0.484375 0.59375 0.75 1.453125q0.265625 0.859375 0.265625 1.828125q0 2.3125 -1.140625 3.578125q-1.140625 1.25 -2.734375 1.25q-1.59375 0 -2.5 -1.328125l0 1.125zm-0.015625 -4.5625q0 1.625 0.4375 2.34375q0.71875 1.171875 1.953125 1.171875q1.0 0 1.71875 -0.859375q0.734375 -0.875 0.734375 -2.59375q0 -1.765625 -0.703125 -2.59375q-0.703125 -0.84375 -1.6875 -0.84375q-1.0 0 -1.734375 0.875q-0.71875 0.859375 -0.71875 2.5zm8.262085 -6.09375l0 -1.75l1.515625 0l0 1.75l-1.515625 0zm0 10.65625l0 -8.984375l1.515625 0l0 8.984375l-1.515625 0zm3.8341064 0l0 -8.984375l1.375 0l0 1.28125q0.984375 -1.484375 2.859375 -1.484375q0.8125 0 1.484375 0.296875q0.6875 0.28125 1.015625 0.765625q0.34375 0.46875 0.484375 1.125q0.078125 0.421875 0.078125 1.46875l0 5.53125l-1.515625 0l0 -5.46875q0 -0.921875 -0.1875 -1.375q-0.171875 -0.46875 -0.625 -0.75q-0.453125 -0.28125 -1.0625 -0.28125q-0.96875 0 -1.671875 0.625q-0.703125 0.609375 -0.703125 2.34375l0 4.90625l-1.53125 0zm15.793335 -2.890625l1.5625 0.1875q-0.359375 1.390625 -1.375 2.15625q-1.0 0.75 -2.5625 0.75q-1.984375 0 -3.140625 -1.203125q-1.140625 -1.21875 -1.140625 -3.421875q0 -2.265625 1.15625 -3.515625q1.171875 -1.25 3.03125 -1.25q1.8125 0 2.953125 1.234375q1.140625 1.21875 1.140625 3.4375q0 0.140625 -0.015625 0.40625l-6.703125 0q0.09375 1.484375 0.84375 2.28125q0.75 0.78125 1.875 0.78125q0.84375 0 1.4375 -0.4375q0.59375 -0.4375 0.9375 -1.40625zm-5.0 -2.46875l5.015625 0q-0.109375 -1.125 -0.578125 -1.703125q-0.734375 -0.875 -1.890625 -0.875q-1.046875 0 -1.765625 0.703125q-0.703125 0.703125 -0.78125 1.875z" fill-rule="nonzero"/><path fill="#000000" fill-opacity="0.0" d="m424.05118 194.1798l82.77167 97.19685" fill-rule="evenodd"/><path stroke="#595959" stroke-width="1.0" stroke-linejoin="round" stroke-linecap="butt" d="m424.05118 194.1798l80.54971 94.58766" fill-rule="evenodd"/><path fill="#595959" stroke="#595959" stroke-width="1.0" stroke-linecap="butt" d="m504.6009 288.76746l-1.5853271 -0.1270752l2.859436 1.6232605l-1.1470337 -3.0815125z" fill-rule="evenodd"/><path fill="#000000" fill-opacity="0.0" d="m420.8596 204.38452l88.0 181.48032" fill-rule="evenodd"/><path stroke="#595959" stroke-width="1.0" stroke-linejoin="round" stroke-linecap="butt" d="m420.8596 204.38452l86.5047 178.39664" fill-rule="evenodd"/><path fill="#595959" stroke="#595959" stroke-width="1.0" stroke-linecap="butt" d="m507.3643 382.78116l-1.5025635 -0.52124023l2.3600159 2.2894897l-0.33621216 -3.270813z" fill-rule="evenodd"/><path fill="#000000" fill-opacity="0.0" d="m421.85696 108.0538l95.71652 180.75592" fill-rule="evenodd"/><path stroke="#595959" stroke-width="1.0" stroke-linejoin="round" stroke-linecap="butt" d="m421.85696 108.0538l94.1127 177.72723" fill-rule="evenodd"/><path fill="#595959" stroke="#595959" stroke-width="1.0" stroke-linecap="butt" d="m515.9697 285.78104l-1.5201416 -0.4675598l2.4397583 2.2042847l-0.4520874 -3.256836z" fill-rule="evenodd"/><path fill="#000000" fill-opacity="0.0" d="m418.35828 109.8832l97.00787 274.99213" fill-rule="evenodd"/><path stroke="#595959" stroke-width="1.0" stroke-linejoin="round" stroke-linecap="butt" d="m418.35828 109.8832l95.8678 271.76025" fill-rule="evenodd"/><path fill="#595959" stroke="#595959" stroke-width="1.0" stroke-linecap="butt" d="m514.226 381.64343l-1.4346313 -0.68640137l2.08844 2.5396729l0.03265381 -3.2879028z" fill-rule="evenodd"/><path fill="#d8eeff" d="m119.073494 300.04156l0 0c0 -5.8360596 4.731064 -10.567139 10.567131 -10.567139l89.227936 0c2.8025818 0 5.4903717 1.1133423 7.4720917 3.0950623c1.98172 1.98172 3.095047 4.6694946 3.095047 7.4720764l0 42.267303c0 5.8360596 -4.731079 10.567139 -10.567139 10.567139l-89.227936 0c-5.836067 0 -10.567131 -4.731079 -10.567131 -10.567139z" fill-rule="evenodd"/><path stroke="#595959" stroke-width="1.0" stroke-linejoin="round" stroke-linecap="butt" stroke-dasharray="1.0,3.0" d="m119.073494 300.04156l0 0c0 -5.8360596 4.731064 -10.567139 10.567131 -10.567139l89.227936 0c2.8025818 0 5.4903717 1.1133423 7.4720917 3.0950623c1.98172 1.98172 3.095047 4.6694946 3.095047 7.4720764l0 42.267303c0 5.8360596 -4.731079 10.567139 -10.567139 10.567139l-89.227936 0c-5.836067 0 -10.567131 -4.731079 -10.567131 -10.567139z" fill-rule="evenodd"/><path fill="#d8eeff" d="m306.86615 300.0409l0 0c0 -5.8360596 4.7310486 -10.567139 10.567139 -10.567139l95.8421 0c2.8025818 0 5.4903564 1.1133118 7.4720764 3.0950317c1.98172 1.98172 3.0950623 4.669525 3.0950623 7.472107l0 42.267303c0 5.8360596 -4.731079 10.567139 -10.567139 10.567139l-95.8421 0l0 0c-5.83609 0 -10.567139 -4.731079 -10.567139 -10.567139z" fill-rule="evenodd"/><path stroke="#595959" stroke-width="1.0" stroke-linejoin="round" stroke-linecap="butt" stroke-dasharray="1.0,3.0" d="m306.86615 300.0409l0 0c0 -5.8360596 4.7310486 -10.567139 10.567139 -10.567139l95.8421 0c2.8025818 0 5.4903564 1.1133118 7.4720764 3.0950317c1.98172 1.98172 3.0950623 4.669525 3.0950623 7.472107l0 42.267303c0 5.8360596 -4.731079 10.567139 -10.567139 10.567139l-95.8421 0l0 0c-5.83609 0 -10.567139 -4.731079 -10.567139 -10.567139z" fill-rule="evenodd"/><path fill="#000000" fill-opacity="0.0" d="m229.4357 321.17523l77.41733 0" fill-rule="evenodd"/><path stroke="#595959" stroke-width="1.0" stroke-linejoin="round" stroke-linecap="butt" stroke-dasharray="1.0,3.0" d="m229.4357 321.17523l71.41733 0" fill-rule="evenodd"/><path stroke="#595959" stroke-width="1.0" stroke-linecap="butt" d="m300.85303 322.82693l4.538086 -1.6517029l-4.538086 -1.6517334z" fill-rule="evenodd"/><path fill="#d8eeff" d="m119.073494 395.23895l0 0c0 -5.83609 4.731064 -10.567139 10.567131 -10.567139l89.227936 0c2.8025818 0 5.4903717 1.1133118 7.4720917 3.0950317c1.98172 1.98172 3.095047 4.669525 3.095047 7.472107l0 42.267273c0 5.83609 -4.731079 10.567169 -10.567139 10.567169l-89.227936 0c-5.836067 0 -10.567131 -4.731079 -10.567131 -10.567169z" fill-rule="evenodd"/><path stroke="#595959" stroke-width="1.0" stroke-linejoin="round" stroke-linecap="butt" stroke-dasharray="1.0,3.0" d="m119.073494 395.23895l0 0c0 -5.83609 4.731064 -10.567139 10.567131 -10.567139l89.227936 0c2.8025818 0 5.4903717 1.1133118 7.4720917 3.0950317c1.98172 1.98172 3.095047 4.669525 3.095047 7.472107l0 42.267273c0 5.83609 -4.731079 10.567169 -10.567139 10.567169l-89.227936 0c-5.836067 0 -10.567131 -4.731079 -10.567131 -10.567169z" fill-rule="evenodd"/><path fill="#d8eeff" d="m306.86615 395.23782l0 0c0 -5.8360596 4.7310486 -10.567139 10.567139 -10.567139l95.8421 0c2.8025818 0 5.4903564 1.1133118 7.4720764 3.0950317c1.98172 1.9817505 3.0950623 4.669525 3.0950623 7.472107l0 42.267303c0 5.8360596 -4.731079 10.567139 -10.567139 10.567139l-95.8421 0l0 0c-5.83609 0 -10.567139 -4.731079 -10.567139 -10.567139z" fill-rule="evenodd"/><path stroke="#595959" stroke-width="1.0" stroke-linejoin="round" stroke-linecap="butt" stroke-dasharray="1.0,3.0" d="m306.86615 395.23782l0 0c0 -5.8360596 4.7310486 -10.567139 10.567139 -10.567139l95.8421 0c2.8025818 0 5.4903564 1.1133118 7.4720764 3.0950317c1.98172 1.9817505 3.0950623 4.669525 3.0950623 7.472107l0 42.267303c0 5.8360596 -4.731079 10.567139 -10.567139 10.567139l-95.8421 0l0 0c-5.83609 0 -10.567139 -4.731079 -10.567139 -10.567139z" fill-rule="evenodd"/><path fill="#000000" fill-opacity="0.0" d="m229.4357 416.3726l77.41733 0" fill-rule="evenodd"/><path stroke="#595959" stroke-width="1.0" stroke-linejoin="round" stroke-linecap="butt" stroke-dasharray="1.0,3.0" d="m229.4357 416.3726l71.41733 0" fill-rule="evenodd"/><path stroke="#595959" stroke-width="1.0" stroke-linecap="butt" d="m300.85303 418.02432l4.538086 -1.6517334l-4.538086 -1.6517334z" fill-rule="evenodd"/><path fill="#000000" fill-opacity="0.0" d="m229.43562 395.3787l77.41731 -50.299225" fill-rule="evenodd"/><path stroke="#595959" stroke-width="1.0" stroke-linejoin="round" stroke-linecap="butt" stroke-dasharray="1.0,3.0" d="m229.43561 395.3787l72.38602 -47.030304" fill-rule="evenodd"/><path stroke="#595959" stroke-width="1.0" stroke-linecap="butt" d="m302.72153 349.73346l2.9055176 -3.8575134l-4.7053223 1.0874023z" fill-rule="evenodd"/><path fill="#000000" fill-opacity="0.0" d="m229.43562 343.63065l77.41731 50.299225" fill-rule="evenodd"/><path stroke="#595959" stroke-width="1.0" stroke-linejoin="round" stroke-linecap="butt" stroke-dasharray="1.0,3.0" d="m229.43561 343.63065l72.38602 47.030334" fill-rule="evenodd"/><path stroke="#595959" stroke-width="1.0" stroke-linecap="butt" d="m300.92172 392.04602l4.7053223 1.0873718l-2.9055176 -3.8575134z" fill-rule="evenodd"/><path fill="#000000" fill-opacity="0.0" d="m424.63254 321.17523l77.41733 0" fill-rule="evenodd"/><path stroke="#595959" stroke-width="1.0" stroke-linejoin="round" stroke-linecap="butt" stroke-dasharray="1.0,3.0" d="m424.63254 321.17523l71.41733 0" fill-rule="evenodd"/><path stroke="#595959" stroke-width="1.0" stroke-linecap="butt" d="m496.04987 322.82693l4.538086 -1.6517029l-4.538086 -1.6517334z" fill-rule="evenodd"/><path fill="#000000" fill-opacity="0.0" d="m424.63254 416.3726l77.41733 0" fill-rule="evenodd"/><path stroke="#595959" stroke-width="1.0" stroke-linejoin="round" stroke-linecap="butt" stroke-dasharray="1.0,3.0" d="m424.63254 416.3726l71.41733 0" fill-rule="evenodd"/><path stroke="#595959" stroke-width="1.0" stroke-linecap="butt" d="m496.04987 418.02432l4.538086 -1.6517334l-4.538086 -1.6517334z" fill-rule="evenodd"/><path fill="#000000" fill-opacity="0.0" d="m424.63248 395.3787l77.41733 -50.299225" fill-rule="evenodd"/><path stroke="#595959" stroke-width="1.0" stroke-linejoin="round" stroke-linecap="butt" stroke-dasharray="1.0,3.0" d="m424.63248 395.3787l72.38599 -47.030304" fill-rule="evenodd"/><path stroke="#595959" stroke-width="1.0" stroke-linecap="butt" d="m497.91837 349.73346l2.905548 -3.8575134l-4.705353 1.0874023z" fill-rule="evenodd"/><path fill="#000000" fill-opacity="0.0" d="m424.63248 343.63065l77.41733 50.299225" fill-rule="evenodd"/><path stroke="#595959" stroke-width="1.0" stroke-linejoin="round" stroke-linecap="butt" stroke-dasharray="1.0,3.0" d="m424.63248 343.63065l72.38599 47.030334" fill-rule="evenodd"/><path stroke="#595959" stroke-width="1.0" stroke-linecap="butt" d="m496.11856 392.04602l4.705353 1.0873718l-2.905548 -3.8575134z" fill-rule="evenodd"/><path fill="#000000" fill-opacity="0.0" d="m422.63647 302.02493l82.77167 -97.19685" fill-rule="evenodd"/><path stroke="#595959" stroke-width="1.0" stroke-linejoin="round" stroke-linecap="butt" stroke-dasharray="1.0,3.0" d="m422.63647 302.02493l78.88156 -92.6288" fill-rule="evenodd"/><path stroke="#595959" stroke-width="1.0" stroke-linecap="butt" d="m502.77557 210.46704l1.6847534 -4.525955l-4.199829 2.3841553z" fill-rule="evenodd"/><path fill="#000000" fill-opacity="0.0" d="m419.4449 291.82022l88.0 -181.48032" fill-rule="evenodd"/><path stroke="#595959" stroke-width="1.0" stroke-linejoin="round" stroke-linecap="butt" stroke-dasharray="1.0,3.0" d="m419.4449 291.82022l85.38214 -176.08154" fill-rule="evenodd"/><path stroke="#595959" stroke-width="1.0" stroke-linecap="butt" d="m506.31323 116.459335l0.49380493 -4.8040237l-3.4662476 3.3626862z" fill-rule="evenodd"/><path fill="#000000" fill-opacity="0.0" d="m420.44226 388.1509l95.71655 -180.75589" fill-rule="evenodd"/><path stroke="#595959" stroke-width="1.0" stroke-linejoin="round" stroke-linecap="butt" stroke-dasharray="1.0,3.0" d="m420.44226 388.1509l92.90869 -175.45345" fill-rule="evenodd"/><path stroke="#595959" stroke-width="1.0" stroke-linecap="butt" d="m514.81067 213.47044l0.66400146 -4.783478l-3.583435 3.2375336z" fill-rule="evenodd"/><path fill="#000000" fill-opacity="0.0" d="m416.94357 386.32153l97.00784 -274.99213" fill-rule="evenodd"/><path stroke="#595959" stroke-width="1.0" stroke-linejoin="round" stroke-linecap="butt" stroke-dasharray="1.0,3.0" d="m416.94357 386.32153l95.01184 -269.3339" fill-rule="evenodd"/><path stroke="#595959" stroke-width="1.0" stroke-linecap="butt" d="m513.51306 117.53714l-0.047973633 -4.829109l-3.0673218 3.730133z" fill-rule="evenodd"/></g></svg>