<!--
Created using https://bottlecaps.de/rr/ui?

TypeSpec ::= 'TYPE' TypeIdentifier

-->
<svg xmlns="http://www.w3.org/2000/svg" width="241" height="37">
         <defs>
            <style type="text/css">
    @namespace "http://www.w3.org/2000/svg";
    .line                 {fill: none; stroke: #453700; stroke-width: 1;}
    .bold-line            {stroke: #141000; shape-rendering: crispEdges; stroke-width: 2;}
    .thin-line            {stroke: #1F1800; shape-rendering: crispEdges}
    .filled               {fill: #453700; stroke: none;}
    text.terminal         {font-family: Verdana, Sans-serif;
                            font-size: 12px;
                            fill: #141000;
                            font-weight: bold;
                          }
    text.nonterminal      {font-family: Verdana, Sans-serif;
                            font-size: 12px;
                            fill: #1A1400;
                            font-weight: normal;
                          }
    text.regexp           {font-family: Verdana, Sans-serif;
                            font-size: 12px;
                            fill: #1F1800;
                            font-weight: normal;
                          }
    rect, circle, polygon {fill: #453700; stroke: #453700;}
    rect.terminal         {fill: #FFF5CC; stroke: #453700; stroke-width: 1;}
    rect.nonterminal      {fill: #FFF9E3; stroke: #453700; stroke-width: 1;}
    rect.text             {fill: none; stroke: none;}
    polygon.regexp        {fill: #FFFCEF; stroke: #453700; stroke-width: 1;}
  </style>
         </defs>
         <polygon points="9 17 1 13 1 21"/>
         <polygon points="17 17 9 13 9 21"/>
         <rect x="31" y="3" width="54" height="32" rx="10"/>
         <rect x="29" y="1" width="54" height="32" class="terminal" rx="10"/>
         <text class="terminal" x="39" y="21">TYPE</text><a xmlns:xlink="http://www.w3.org/1999/xlink" xlink:href="#TypeIdentifier" xlink:title="TypeIdentifier">
            <rect x="105" y="3" width="108" height="32"/>
            <rect x="103" y="1" width="108" height="32" class="nonterminal"/>
            <text class="nonterminal" x="113" y="21">TypeIdentifier</text></a><svg:path xmlns:svg="http://www.w3.org/2000/svg" class="line" d="m17 17 h2 m0 0 h10 m54 0 h10 m0 0 h10 m108 0 h10 m3 0 h-3"/>
         <polygon points="231 17 239 13 239 21"/>
         <polygon points="231 17 223 13 223 21"/></svg>
