<!--
Created using https://bottlecaps.de/rr/ui?

DropSnapshot ::= 'DROP' 'SNAPSHOT' ('IF' 'EXISTS')? SnapshotName

-->
<svg xmlns="http://www.w3.org/2000/svg" width="553" height="69">
    <defs>
        <style type="text/css">
            @namespace "http://www.w3.org/2000/svg";
            .line                 {fill: none; stroke: #453700; stroke-width: 1;}
            .bold-line            {stroke: #141000; shape-rendering: crispEdges; stroke-width: 2;}
            .thin-line            {stroke: #1F1800; shape-rendering: crispEdges}
            .filled               {fill: #453700; stroke: none;}
            text.terminal         {font-family: Verdana, Sans-serif;
            font-size: 12px;
            fill: #141000;
            font-weight: bold;
            }
            text.nonterminal      {font-family: Verdana, Sans-serif;
            font-size: 12px;
            fill: #1A1400;
            font-weight: normal;
            }
            text.regexp           {font-family: Verdana, Sans-serif;
            font-size: 12px;
            fill: #1F1800;
            font-weight: normal;
            }
            rect, circle, polygon {fill: #453700; stroke: #453700;}
            rect.terminal         {fill: #FFF5CC; stroke: #453700; stroke-width: 1;}
            rect.nonterminal      {fill: #FFF9E3; stroke: #453700; stroke-width: 1;}
            rect.text             {fill: none; stroke: none;}
            polygon.regexp        {fill: #FFFCEF; stroke: #453700; stroke-width: 1;}
        </style>
    </defs>
    <polygon points="9 17 1 13 1 21"/>
    <polygon points="17 17 9 13 9 21"/>
    <rect x="31" y="3" width="58" height="32" rx="10"/>
    <rect x="29" y="1" width="58" height="32" class="terminal" rx="10"/>
    <text class="terminal" x="39" y="21">DROP</text>
    <rect x="109" y="3" width="96" height="32" rx="10"/>
    <rect x="107" y="1" width="96" height="32" class="terminal" rx="10"/>
    <text class="terminal" x="117" y="21">SNAPSHOT</text>
    <rect x="245" y="35" width="34" height="32" rx="10"/>
    <rect x="243" y="33" width="34" height="32" class="terminal" rx="10"/>
    <text class="terminal" x="253" y="53">IF</text>
    <rect x="299" y="35" width="70" height="32" rx="10"/>
    <rect x="297" y="33" width="70" height="32" class="terminal" rx="10"/>
    <text class="terminal" x="307" y="53">EXISTS</text><a xmlns:xlink="http://www.w3.org/1999/xlink" xlink:href="#SnapshotName" xlink:title="SnapshotName">
    <rect x="409" y="3" width="116" height="32"/>
    <rect x="407" y="1" width="116" height="32" class="nonterminal"/>
    <text class="nonterminal" x="417" y="21">SnapshotName</text></a><svg:path xmlns:svg="http://www.w3.org/2000/svg" class="line" d="m17 17 h2 m0 0 h10 m58 0 h10 m0 0 h10 m96 0 h10 m20 0 h10 m0 0 h134 m-164 0 h20 m144 0 h20 m-184 0 q10 0 10 10 m164 0 q0 -10 10 -10 m-174 10 v12 m164 0 v-12 m-164 12 q0 10 10 10 m144 0 q10 0 10 -10 m-154 10 h10 m34 0 h10 m0 0 h10 m70 0 h10 m20 -32 h10 m116 0 h10 m3 0 h-3"/>
    <polygon points="543 17 551 13 551 21"/>
    <polygon points="543 17 535 13 535 21"/></svg>
