<!--
Created using https://bottlecaps.de/rr/ui?

DropMapping ::= 'DROP' 'EXTERNAL'? 'MAPPING' ('IF' 'EXISTS')? MappingName
-->
<svg xmlns="http://www.w3.org/2000/svg" width="685" height="69">
         <defs>
            <style type="text/css">
    @namespace "http://www.w3.org/2000/svg";
    .line                 {fill: none; stroke: #453700; stroke-width: 1;}
    .bold-line            {stroke: #141000; shape-rendering: crispEdges; stroke-width: 2;}
    .thin-line            {stroke: #1F1800; shape-rendering: crispEdges}
    .filled               {fill: #453700; stroke: none;}
    text.terminal         {font-family: Verdana, Sans-serif;
                            font-size: 12px;
                            fill: #141000;
                            font-weight: bold;
                          }
    text.nonterminal      {font-family: Verdana, Sans-serif;
                            font-size: 12px;
                            fill: #1A1400;
                            font-weight: normal;
                          }
    text.regexp           {font-family: Verdana, Sans-serif;
                            font-size: 12px;
                            fill: #1F1800;
                            font-weight: normal;
                          }
    rect, circle, polygon {fill: #453700; stroke: #453700;}
    rect.terminal         {fill: #FFF5CC; stroke: #453700; stroke-width: 1;}
    rect.nonterminal      {fill: #FFF9E3; stroke: #453700; stroke-width: 1;}
    rect.text             {fill: none; stroke: none;}
    polygon.regexp        {fill: #FFFCEF; stroke: #453700; stroke-width: 1;}
  </style>
         </defs>
         <polygon points="9 17 1 13 1 21"/>
         <polygon points="17 17 9 13 9 21"/>
         <rect x="31" y="3" width="58" height="32" rx="10"/>
         <rect x="29" y="1" width="58" height="32" class="terminal" rx="10"/>
         <text class="terminal" x="39" y="21">DROP</text>
         <rect x="129" y="35" width="90" height="32" rx="10"/>
         <rect x="127" y="33" width="90" height="32" class="terminal" rx="10"/>
         <text class="terminal" x="137" y="53">EXTERNAL</text>
         <rect x="259" y="3" width="84" height="32" rx="10"/>
         <rect x="257" y="1" width="84" height="32" class="terminal" rx="10"/>
         <text class="terminal" x="267" y="21">MAPPING</text>
         <rect x="383" y="35" width="34" height="32" rx="10"/>
         <rect x="381" y="33" width="34" height="32" class="terminal" rx="10"/>
         <text class="terminal" x="391" y="53">IF</text>
         <rect x="437" y="35" width="70" height="32" rx="10"/>
         <rect x="435" y="33" width="70" height="32" class="terminal" rx="10"/>
         <text class="terminal" x="445" y="53">EXISTS</text><a xmlns:xlink="http://www.w3.org/1999/xlink" xlink:href="#MappingName" xlink:title="MappingName">
            <rect x="547" y="3" width="110" height="32"/>
            <rect x="545" y="1" width="110" height="32" class="nonterminal"/>
            <text class="nonterminal" x="555" y="21">MappingName</text></a><svg:path xmlns:svg="http://www.w3.org/2000/svg" class="line" d="m17 17 h2 m0 0 h10 m58 0 h10 m20 0 h10 m0 0 h100 m-130 0 h20 m110 0 h20 m-150 0 q10 0 10 10 m130 0 q0 -10 10 -10 m-140 10 v12 m130 0 v-12 m-130 12 q0 10 10 10 m110 0 q10 0 10 -10 m-120 10 h10 m90 0 h10 m20 -32 h10 m84 0 h10 m20 0 h10 m0 0 h134 m-164 0 h20 m144 0 h20 m-184 0 q10 0 10 10 m164 0 q0 -10 10 -10 m-174 10 v12 m164 0 v-12 m-164 12 q0 10 10 10 m144 0 q10 0 10 -10 m-154 10 h10 m34 0 h10 m0 0 h10 m70 0 h10 m20 -32 h10 m110 0 h10 m3 0 h-3"/>
         <polygon points="675 17 683 13 683 21"/>
         <polygon points="675 17 667 13 667 21"/></svg>
