<!--
Created using https://bottlecaps.de/rr/ui?

CreateMapping ::= 'CREATE' ('OR' 'REPLACE')? 'EXTERNAL'? 'MAPPING'
 MappingName ('IF' 'NOT' 'EXISTS')? ColumnList? TypeSpec Options?

-->
<svg xmlns="http://www.w3.org/2000/svg" width="961" height="167">
         <defs>
            <style type="text/css">
    @namespace "http://www.w3.org/2000/svg";
    .line                 {fill: none; stroke: #453700; stroke-width: 1;}
    .bold-line            {stroke: #141000; shape-rendering: crispEdges; stroke-width: 2;}
    .thin-line            {stroke: #1F1800; shape-rendering: crispEdges}
    .filled               {fill: #453700; stroke: none;}
    text.terminal         {font-family: Verdana, Sans-serif;
                            font-size: 12px;
                            fill: #141000;
                            font-weight: bold;
                          }
    text.nonterminal      {font-family: Verdana, Sans-serif;
                            font-size: 12px;
                            fill: #1A1400;
                            font-weight: normal;
                          }
    text.regexp           {font-family: Verdana, Sans-serif;
                            font-size: 12px;
                            fill: #1F1800;
                            font-weight: normal;
                          }
    rect, circle, polygon {fill: #453700; stroke: #453700;}
    rect.terminal         {fill: #FFF5CC; stroke: #453700; stroke-width: 1;}
    rect.nonterminal      {fill: #FFF9E3; stroke: #453700; stroke-width: 1;}
    rect.text             {fill: none; stroke: none;}
    polygon.regexp        {fill: #FFFCEF; stroke: #453700; stroke-width: 1;}
  </style>
         </defs>
         <polygon points="9 17 1 13 1 21"/>
         <polygon points="17 17 9 13 9 21"/>
         <rect x="31" y="3" width="72" height="32" rx="10"/>
         <rect x="29" y="1" width="72" height="32" class="terminal" rx="10"/>
         <text class="terminal" x="39" y="21">CREATE</text>
         <rect x="143" y="35" width="40" height="32" rx="10"/>
         <rect x="141" y="33" width="40" height="32" class="terminal" rx="10"/>
         <text class="terminal" x="151" y="53">OR</text>
         <rect x="203" y="35" width="80" height="32" rx="10"/>
         <rect x="201" y="33" width="80" height="32" class="terminal" rx="10"/>
         <text class="terminal" x="211" y="53">REPLACE</text>
         <rect x="343" y="35" width="90" height="32" rx="10"/>
         <rect x="341" y="33" width="90" height="32" class="terminal" rx="10"/>
         <text class="terminal" x="351" y="53">EXTERNAL</text>
         <rect x="473" y="3" width="84" height="32" rx="10"/>
         <rect x="471" y="1" width="84" height="32" class="terminal" rx="10"/>
         <text class="terminal" x="481" y="21">MAPPING</text><a xmlns:xlink="http://www.w3.org/1999/xlink" xlink:href="#MappingName" xlink:title="MappingName">
            <rect x="577" y="3" width="110" height="32"/>
            <rect x="575" y="1" width="110" height="32" class="nonterminal"/>
            <text class="nonterminal" x="585" y="21">MappingName</text></a><rect x="727" y="35" width="34" height="32" rx="10"/>
         <rect x="725" y="33" width="34" height="32" class="terminal" rx="10"/>
         <text class="terminal" x="735" y="53">IF</text>
         <rect x="781" y="35" width="48" height="32" rx="10"/>
         <rect x="779" y="33" width="48" height="32" class="terminal" rx="10"/>
         <text class="terminal" x="789" y="53">NOT</text>
         <rect x="849" y="35" width="70" height="32" rx="10"/>
         <rect x="847" y="33" width="70" height="32" class="terminal" rx="10"/>
         <text class="terminal" x="857" y="53">EXISTS</text><a xmlns:xlink="http://www.w3.org/1999/xlink" xlink:href="#ColumnList" xlink:title="ColumnList">
            <rect x="595" y="133" width="90" height="32"/>
            <rect x="593" y="131" width="90" height="32" class="nonterminal"/>
            <text class="nonterminal" x="603" y="151">ColumnList</text></a><a xmlns:xlink="http://www.w3.org/1999/xlink" xlink:href="#TypeSpec" xlink:title="TypeSpec">
            <rect x="725" y="101" width="80" height="32"/>
            <rect x="723" y="99" width="80" height="32" class="nonterminal"/>
            <text class="nonterminal" x="733" y="119">TypeSpec</text></a><a xmlns:xlink="http://www.w3.org/1999/xlink" xlink:href="#Options" xlink:title="Options">
            <rect x="845" y="133" width="68" height="32"/>
            <rect x="843" y="131" width="68" height="32" class="nonterminal"/>
            <text class="nonterminal" x="853" y="151">Options</text></a><svg:path xmlns:svg="http://www.w3.org/2000/svg" class="line" d="m17 17 h2 m0 0 h10 m72 0 h10 m20 0 h10 m0 0 h150 m-180 0 h20 m160 0 h20 m-200 0 q10 0 10 10 m180 0 q0 -10 10 -10 m-190 10 v12 m180 0 v-12 m-180 12 q0 10 10 10 m160 0 q10 0 10 -10 m-170 10 h10 m40 0 h10 m0 0 h10 m80 0 h10 m40 -32 h10 m0 0 h100 m-130 0 h20 m110 0 h20 m-150 0 q10 0 10 10 m130 0 q0 -10 10 -10 m-140 10 v12 m130 0 v-12 m-130 12 q0 10 10 10 m110 0 q10 0 10 -10 m-120 10 h10 m90 0 h10 m20 -32 h10 m84 0 h10 m0 0 h10 m110 0 h10 m20 0 h10 m0 0 h202 m-232 0 h20 m212 0 h20 m-252 0 q10 0 10 10 m232 0 q0 -10 10 -10 m-242 10 v12 m232 0 v-12 m-232 12 q0 10 10 10 m212 0 q10 0 10 -10 m-222 10 h10 m34 0 h10 m0 0 h10 m48 0 h10 m0 0 h10 m70 0 h10 m22 -32 l2 0 m2 0 l2 0 m2 0 l2 0 m-408 98 l2 0 m2 0 l2 0 m2 0 l2 0 m22 0 h10 m0 0 h100 m-130 0 h20 m110 0 h20 m-150 0 q10 0 10 10 m130 0 q0 -10 10 -10 m-140 10 v12 m130 0 v-12 m-130 12 q0 10 10 10 m110 0 q10 0 10 -10 m-120 10 h10 m90 0 h10 m20 -32 h10 m80 0 h10 m20 0 h10 m0 0 h78 m-108 0 h20 m88 0 h20 m-128 0 q10 0 10 10 m108 0 q0 -10 10 -10 m-118 10 v12 m108 0 v-12 m-108 12 q0 10 10 10 m88 0 q10 0 10 -10 m-98 10 h10 m68 0 h10 m23 -32 h-3"/>
         <polygon points="951 115 959 111 959 119"/>
         <polygon points="951 115 943 111 943 119"/></svg>
