<!--
Created using https://bottlecaps.de/rr/ui?

Options ::= 'OPTIONS' '(' OptionName "'" OptionValue "'"
(',' OptionName "'" OptionValue "'")* ')'

-->
<svg xmlns="http://www.w3.org/2000/svg" width="597" height="81">
         <defs>
            <style type="text/css">
    @namespace "http://www.w3.org/2000/svg";
    .line                 {fill: none; stroke: #453700; stroke-width: 1;}
    .bold-line            {stroke: #141000; shape-rendering: crispEdges; stroke-width: 2;}
    .thin-line            {stroke: #1F1800; shape-rendering: crispEdges}
    .filled               {fill: #453700; stroke: none;}
    text.terminal         {font-family: Verdana, Sans-serif;
                            font-size: 12px;
                            fill: #141000;
                            font-weight: bold;
                          }
    text.nonterminal      {font-family: Verdana, Sans-serif;
                            font-size: 12px;
                            fill: #1A1400;
                            font-weight: normal;
                          }
    text.regexp           {font-family: Verdana, Sans-serif;
                            font-size: 12px;
                            fill: #1F1800;
                            font-weight: normal;
                          }
    rect, circle, polygon {fill: #453700; stroke: #453700;}
    rect.terminal         {fill: #FFF5CC; stroke: #453700; stroke-width: 1;}
    rect.nonterminal      {fill: #FFF9E3; stroke: #453700; stroke-width: 1;}
    rect.text             {fill: none; stroke: none;}
    polygon.regexp        {fill: #FFFCEF; stroke: #453700; stroke-width: 1;}
  </style>
         </defs>
         <polygon points="9 61 1 57 1 65"/>
         <polygon points="17 61 9 57 9 65"/>
         <rect x="31" y="47" width="84" height="32" rx="10"/>
         <rect x="29" y="45" width="84" height="32" class="terminal" rx="10"/>
         <text class="terminal" x="39" y="65">OPTIONS</text>
         <rect x="135" y="47" width="26" height="32" rx="10"/>
         <rect x="133" y="45" width="26" height="32" class="terminal" rx="10"/>
         <text class="terminal" x="143" y="65">(</text><a xmlns:xlink="http://www.w3.org/1999/xlink" xlink:href="#OptionName" xlink:title="OptionName">
            <rect x="201" y="47" width="98" height="32"/>
            <rect x="199" y="45" width="98" height="32" class="nonterminal"/>
            <text class="nonterminal" x="209" y="65">OptionName</text></a><rect x="319" y="47" width="24" height="32" rx="10"/>
         <rect x="317" y="45" width="24" height="32" class="terminal" rx="10"/>
         <text class="terminal" x="327" y="65">'</text><a xmlns:xlink="http://www.w3.org/1999/xlink" xlink:href="#OptionValue" xlink:title="OptionValue">
            <rect x="363" y="47" width="96" height="32"/>
            <rect x="361" y="45" width="96" height="32" class="nonterminal"/>
            <text class="nonterminal" x="371" y="65">OptionValue</text></a><rect x="479" y="47" width="24" height="32" rx="10"/>
         <rect x="477" y="45" width="24" height="32" class="terminal" rx="10"/>
         <text class="terminal" x="487" y="65">'</text>
         <rect x="201" y="3" width="24" height="32" rx="10"/>
         <rect x="199" y="1" width="24" height="32" class="terminal" rx="10"/>
         <text class="terminal" x="209" y="21">,</text>
         <rect x="543" y="47" width="26" height="32" rx="10"/>
         <rect x="541" y="45" width="26" height="32" class="terminal" rx="10"/>
         <text class="terminal" x="551" y="65">)</text>
         <svg:path xmlns:svg="http://www.w3.org/2000/svg" class="line" d="m17 61 h2 m0 0 h10 m84 0 h10 m0 0 h10 m26 0 h10 m20 0 h10 m98 0 h10 m0 0 h10 m24 0 h10 m0 0 h10 m96 0 h10 m0 0 h10 m24 0 h10 m-342 0 l20 0 m-1 0 q-9 0 -9 -10 l0 -24 q0 -10 10 -10 m322 44 l20 0 m-20 0 q10 0 10 -10 l0 -24 q0 -10 -10 -10 m-322 0 h10 m24 0 h10 m0 0 h278 m20 44 h10 m26 0 h10 m3 0 h-3"/>
         <polygon points="587 61 595 57 595 65"/>
         <polygon points="587 61 579 57 579 65"/></svg>
