<!--
Created using https://bottlecaps.de/rr/ui?

AlterJob ::= 'ALTER' 'JOB' JobName ('SUSPEND' | 'RESUME' | 'RESTART')

-->
<svg xmlns="http://www.w3.org/2000/svg" width="429" height="125">
    <defs>
        <style type="text/css">
            @namespace "http://www.w3.org/2000/svg";
            .line                 {fill: none; stroke: #453700; stroke-width: 1;}
            .bold-line            {stroke: #141000; shape-rendering: crispEdges; stroke-width: 2;}
            .thin-line            {stroke: #1F1800; shape-rendering: crispEdges}
            .filled               {fill: #453700; stroke: none;}
            text.terminal         {font-family: Verdana, Sans-serif;
            font-size: 12px;
            fill: #141000;
            font-weight: bold;
            }
            text.nonterminal      {font-family: Verdana, Sans-serif;
            font-size: 12px;
            fill: #1A1400;
            font-weight: normal;
            }
            text.regexp           {font-family: Verdana, Sans-serif;
            font-size: 12px;
            fill: #1F1800;
            font-weight: normal;
            }
            rect, circle, polygon {fill: #453700; stroke: #453700;}
            rect.terminal         {fill: #FFF5CC; stroke: #453700; stroke-width: 1;}
            rect.nonterminal      {fill: #FFF9E3; stroke: #453700; stroke-width: 1;}
            rect.text             {fill: none; stroke: none;}
            polygon.regexp        {fill: #FFFCEF; stroke: #453700; stroke-width: 1;}
        </style>
    </defs>
    <polygon points="9 17 1 13 1 21"/>
    <polygon points="17 17 9 13 9 21"/>
    <rect x="31" y="3" width="62" height="32" rx="10"/>
    <rect x="29" y="1" width="62" height="32" class="terminal" rx="10"/>
    <text class="terminal" x="39" y="21">ALTER</text>
    <rect x="113" y="3" width="46" height="32" rx="10"/>
    <rect x="111" y="1" width="46" height="32" class="terminal" rx="10"/>
    <text class="terminal" x="121" y="21">JOB</text><a xmlns:xlink="http://www.w3.org/1999/xlink" xlink:href="#JobName" xlink:title="JobName">
    <rect x="179" y="3" width="78" height="32"/>
    <rect x="177" y="1" width="78" height="32" class="nonterminal"/>
    <text class="nonterminal" x="187" y="21">JobName</text></a><rect x="297" y="3" width="84" height="32" rx="10"/>
    <rect x="295" y="1" width="84" height="32" class="terminal" rx="10"/>
    <text class="terminal" x="305" y="21">SUSPEND</text>
    <rect x="297" y="47" width="76" height="32" rx="10"/>
    <rect x="295" y="45" width="76" height="32" class="terminal" rx="10"/>
    <text class="terminal" x="305" y="65">RESUME</text>
    <rect x="297" y="91" width="82" height="32" rx="10"/>
    <rect x="295" y="89" width="82" height="32" class="terminal" rx="10"/>
    <text class="terminal" x="305" y="109">RESTART</text>
    <svg:path xmlns:svg="http://www.w3.org/2000/svg" class="line" d="m17 17 h2 m0 0 h10 m62 0 h10 m0 0 h10 m46 0 h10 m0 0 h10 m78 0 h10 m20 0 h10 m84 0 h10 m-124 0 h20 m104 0 h20 m-144 0 q10 0 10 10 m124 0 q0 -10 10 -10 m-134 10 v24 m124 0 v-24 m-124 24 q0 10 10 10 m104 0 q10 0 10 -10 m-114 10 h10 m76 0 h10 m0 0 h8 m-114 -10 v20 m124 0 v-20 m-124 20 v24 m124 0 v-24 m-124 24 q0 10 10 10 m104 0 q10 0 10 -10 m-114 10 h10 m82 0 h10 m0 0 h2 m23 -88 h-3"/>
    <polygon points="419 17 427 13 427 21"/>
    <polygon points="419 17 411 13 411 21"/></svg>
