<!--
Created using https://bottlecaps.de/rr/ui?

ColumnList ::= '(' ColumnName ColumnType (EXTERNAL NAME ExternalName)?
 (',' ColumnName ColumnType (EXTERNAL NAME ExternalName)?)* ')'

-->
<svg xmlns="http://www.w3.org/2000/svg" width="759" height="113">
         <defs>
            <style type="text/css">
    @namespace "http://www.w3.org/2000/svg";
    .line                 {fill: none; stroke: #453700; stroke-width: 1;}
    .bold-line            {stroke: #141000; shape-rendering: crispEdges; stroke-width: 2;}
    .thin-line            {stroke: #1F1800; shape-rendering: crispEdges}
    .filled               {fill: #453700; stroke: none;}
    text.terminal         {font-family: Verdana, Sans-serif;
                            font-size: 12px;
                            fill: #141000;
                            font-weight: bold;
                          }
    text.nonterminal      {font-family: Verdana, Sans-serif;
                            font-size: 12px;
                            fill: #1A1400;
                            font-weight: normal;
                          }
    text.regexp           {font-family: Verdana, Sans-serif;
                            font-size: 12px;
                            fill: #1F1800;
                            font-weight: normal;
                          }
    rect, circle, polygon {fill: #453700; stroke: #453700;}
    rect.terminal         {fill: #FFF5CC; stroke: #453700; stroke-width: 1;}
    rect.nonterminal      {fill: #FFF9E3; stroke: #453700; stroke-width: 1;}
    rect.text             {fill: none; stroke: none;}
    polygon.regexp        {fill: #FFFCEF; stroke: #453700; stroke-width: 1;}
  </style>
         </defs>
         <polygon points="9 61 1 57 1 65"/>
         <polygon points="17 61 9 57 9 65"/>
         <rect x="31" y="47" width="26" height="32" rx="10"/>
         <rect x="29" y="45" width="26" height="32" class="terminal" rx="10"/>
         <text class="terminal" x="39" y="65">(</text><a xmlns:xlink="http://www.w3.org/1999/xlink" xlink:href="#ColumnName" xlink:title="ColumnName">
            <rect x="97" y="47" width="104" height="32"/>
            <rect x="95" y="45" width="104" height="32" class="nonterminal"/>
            <text class="nonterminal" x="105" y="65">ColumnName</text></a><a xmlns:xlink="http://www.w3.org/1999/xlink" xlink:href="#ColumnType" xlink:title="ColumnType">
            <rect x="221" y="47" width="98" height="32"/>
            <rect x="219" y="45" width="98" height="32" class="nonterminal"/>
            <text class="nonterminal" x="229" y="65">ColumnType</text></a><a xmlns:xlink="http://www.w3.org/1999/xlink" xlink:href="#EXTERNAL" xlink:title="EXTERNAL">
            <rect x="359" y="79" width="84" height="32"/>
            <rect x="357" y="77" width="84" height="32" class="nonterminal"/>
            <text class="nonterminal" x="367" y="97">EXTERNAL</text></a><a xmlns:xlink="http://www.w3.org/1999/xlink" xlink:href="#NAME" xlink:title="NAME">
            <rect x="463" y="79" width="54" height="32"/>
            <rect x="461" y="77" width="54" height="32" class="nonterminal"/>
            <text class="nonterminal" x="471" y="97">NAME</text></a><a xmlns:xlink="http://www.w3.org/1999/xlink" xlink:href="#ExternalName" xlink:title="ExternalName">
            <rect x="537" y="79" width="108" height="32"/>
            <rect x="535" y="77" width="108" height="32" class="nonterminal"/>
            <text class="nonterminal" x="545" y="97">ExternalName</text></a><rect x="97" y="3" width="24" height="32" rx="10"/>
         <rect x="95" y="1" width="24" height="32" class="terminal" rx="10"/>
         <text class="terminal" x="105" y="21">,</text>
         <rect x="705" y="47" width="26" height="32" rx="10"/>
         <rect x="703" y="45" width="26" height="32" class="terminal" rx="10"/>
         <text class="terminal" x="713" y="65">)</text>
         <svg:path xmlns:svg="http://www.w3.org/2000/svg" class="line" d="m17 61 h2 m0 0 h10 m26 0 h10 m20 0 h10 m104 0 h10 m0 0 h10 m98 0 h10 m20 0 h10 m0 0 h296 m-326 0 h20 m306 0 h20 m-346 0 q10 0 10 10 m326 0 q0 -10 10 -10 m-336 10 v12 m326 0 v-12 m-326 12 q0 10 10 10 m306 0 q10 0 10 -10 m-316 10 h10 m84 0 h10 m0 0 h10 m54 0 h10 m0 0 h10 m108 0 h10 m-588 -32 l20 0 m-1 0 q-9 0 -9 -10 l0 -24 q0 -10 10 -10 m588 44 l20 0 m-20 0 q10 0 10 -10 l0 -24 q0 -10 -10 -10 m-588 0 h10 m24 0 h10 m0 0 h544 m20 44 h10 m26 0 h10 m3 0 h-3"/>
         <polygon points="749 61 757 57 757 65"/>
         <polygon points="749 61 741 57 741 65"/></svg>
