<!--
Created using https://bottlecaps.de/rr/ui?

CreateSnapshot ::= 'CREATE' ('OR' 'REPLACE')? 'SNAPSHOT' SnapshotName 'FOR' 'JOB' JobName

-->
<svg xmlns="http://www.w3.org/2000/svg" width="815" height="69">
    <defs>
        <style type="text/css">
            @namespace "http://www.w3.org/2000/svg";
            .line                 {fill: none; stroke: #453700; stroke-width: 1;}
            .bold-line            {stroke: #141000; shape-rendering: crispEdges; stroke-width: 2;}
            .thin-line            {stroke: #1F1800; shape-rendering: crispEdges}
            .filled               {fill: #453700; stroke: none;}
            text.terminal         {font-family: Verdana, Sans-serif;
            font-size: 12px;
            fill: #141000;
            font-weight: bold;
            }
            text.nonterminal      {font-family: Verdana, Sans-serif;
            font-size: 12px;
            fill: #1A1400;
            font-weight: normal;
            }
            text.regexp           {font-family: Verdana, Sans-serif;
            font-size: 12px;
            fill: #1F1800;
            font-weight: normal;
            }
            rect, circle, polygon {fill: #453700; stroke: #453700;}
            rect.terminal         {fill: #FFF5CC; stroke: #453700; stroke-width: 1;}
            rect.nonterminal      {fill: #FFF9E3; stroke: #453700; stroke-width: 1;}
            rect.text             {fill: none; stroke: none;}
            polygon.regexp        {fill: #FFFCEF; stroke: #453700; stroke-width: 1;}
        </style>
    </defs>
    <polygon points="9 17 1 13 1 21"/>
    <polygon points="17 17 9 13 9 21"/>
    <rect x="31" y="3" width="72" height="32" rx="10"/>
    <rect x="29" y="1" width="72" height="32" class="terminal" rx="10"/>
    <text class="terminal" x="39" y="21">CREATE</text>
    <rect x="143" y="35" width="40" height="32" rx="10"/>
    <rect x="141" y="33" width="40" height="32" class="terminal" rx="10"/>
    <text class="terminal" x="151" y="53">OR</text>
    <rect x="203" y="35" width="80" height="32" rx="10"/>
    <rect x="201" y="33" width="80" height="32" class="terminal" rx="10"/>
    <text class="terminal" x="211" y="53">REPLACE</text>
    <rect x="323" y="3" width="96" height="32" rx="10"/>
    <rect x="321" y="1" width="96" height="32" class="terminal" rx="10"/>
    <text class="terminal" x="331" y="21">SNAPSHOT</text><a xmlns:xlink="http://www.w3.org/1999/xlink" xlink:href="#SnapshotName" xlink:title="SnapshotName">
    <rect x="439" y="3" width="116" height="32"/>
    <rect x="437" y="1" width="116" height="32" class="nonterminal"/>
    <text class="nonterminal" x="447" y="21">SnapshotName</text></a><rect x="575" y="3" width="48" height="32" rx="10"/>
    <rect x="573" y="1" width="48" height="32" class="terminal" rx="10"/>
    <text class="terminal" x="583" y="21">FOR</text>
    <rect x="643" y="3" width="46" height="32" rx="10"/>
    <rect x="641" y="1" width="46" height="32" class="terminal" rx="10"/>
    <text class="terminal" x="651" y="21">JOB</text><a xmlns:xlink="http://www.w3.org/1999/xlink" xlink:href="#JobName" xlink:title="JobName">
    <rect x="709" y="3" width="78" height="32"/>
    <rect x="707" y="1" width="78" height="32" class="nonterminal"/>
    <text class="nonterminal" x="717" y="21">JobName</text></a><svg:path xmlns:svg="http://www.w3.org/2000/svg" class="line" d="m17 17 h2 m0 0 h10 m72 0 h10 m20 0 h10 m0 0 h150 m-180 0 h20 m160 0 h20 m-200 0 q10 0 10 10 m180 0 q0 -10 10 -10 m-190 10 v12 m180 0 v-12 m-180 12 q0 10 10 10 m160 0 q10 0 10 -10 m-170 10 h10 m40 0 h10 m0 0 h10 m80 0 h10 m20 -32 h10 m96 0 h10 m0 0 h10 m116 0 h10 m0 0 h10 m48 0 h10 m0 0 h10 m46 0 h10 m0 0 h10 m78 0 h10 m3 0 h-3"/>
    <polygon points="805 17 813 13 813 21"/>
    <polygon points="805 17 797 13 797 21"/></svg>
