<svg xmlns="http://www.w3.org/2000/svg" width="1000.012" height="1145.021" viewBox="0 0 1000.012 1145.021"><path d="M931.49 57.815h6.95c8.569 0 15.587-2.842 15.587-10.355 0-5.652-4.145-10.883-15.028-10.883-3.405 0-5.723 0-7.513.247v20.99zm0 36.505h-11.654V29.59c5.407-.77 10.85-1.826 19.411-1.826 10.355 0 16.814 2.106 20.954 5.232 3.617 2.841 5.688 7.194 5.688 13.444 0 8.285-5.44 13.689-12.39 15.515v.492c5.651 1.055 9.264 6.215 10.567 15.83 1.547 10.108 2.842 13.937 3.897 16.043H956.06c-1.547-2.106-2.878-8.037-4.177-16.534-1.262-7.825-5.65-10.915-13.692-10.915h-6.706V94.32zm10.603-82.07c-25.627 0-46.337 21.481-46.337 48.406 0 26.926 20.71 48.408 46.58 48.408 25.623.28 46.09-21.482 46.09-48.408 0-26.925-20.467-48.407-46.09-48.407h-.243zm.244-9.828c32.048 0 57.675 25.906 57.675 57.99 0 32.613-25.627 58.483-57.92 58.483-32.332 0-58.482-25.87-58.482-58.482 0-32.085 26.15-57.991 58.483-57.991h.244zM111.378 1040.481l-9.724-57.6c-2.773-16.601-6.318-42.547-9.02-60.52h-1.055c-2.842 18.109-6.81 44.79-9.724 60.66l-10.463 57.46h39.986zm-45.21 37.533l-12.637 63.922H6.846l58.235-265.94h57.216l52.9 265.94h-46.93l-12.357-63.922H66.168zm215.286-54.87c0-3.545 0-7.69-.703-11.482-1.858-13.13-8.845-24.955-20.079-24.955-19.272 0-26.362 27.764-26.362 60.237 0 37.312 10.108 58.55 25.695 58.55 7.126 0 15.339-3.652 19.799-19.311 1.087-3.122 1.65-7.298 1.65-12.178v-50.861zm47.916-154.206v217.848c0 17.266.88 38.508 1.583 55.11h-41.385l-2.702-22.154h-.983c-6.95 13.66-22.078 25.275-40.158 25.275-39.631 0-59.286-43.735-59.286-98.956 0-67.288 29.307-100.008 61.252-100.008 16.71 0 27.52 8.181 32.964 20.015h.807v-97.13h47.908zm99.796 239.33c18.288 0 22.816-34.47 22.816-63.01 0-27.134-4.528-62.488-23.62-62.488-20.223 0-24.47 35.354-24.47 62.487 0 32.753 5.335 63.011 24.85 63.011h.424zm-.912 36.753c-44.158 0-71.855-35.454-71.855-98.916 0-69.262 35.558-100.048 72.979-100.048 43.563 0 70.872 37.18 70.872 98.924 0 79.333-42.788 100.04-71.608 100.04h-.388zm146.696-71.927c0 4.808.88 9.304 1.9 12.317 4.807 16.119 12.952 20.083 19.479 20.083 18.536 0 26.014-23.488 26.014-61.048 0-34.191-7.902-57.74-26.226-57.74-9.089 0-16.742 9.868-19.376 20.467-.915 3.334-1.79 8.525-1.79 12.106v53.815zm-47.919-204.156h47.916V969.33h.771c9.44-14.815 22.01-23.276 40.262-23.276 36.122 0 54.27 41.073 54.27 94.78 0 67.859-27.065 104.184-62.135 104.184-16.71 0-27.837-7.41-37.876-26.182h-1.012l-2.665 23.06H525.42c.704-15.97 1.611-37.843 1.611-55.109V868.938zm258.046 158.242c.248-27.06-7.69-46.025-22.888-46.025-17.342 0-24.716 25.387-25.24 46.026h48.128zm-48.303 33.88c.564 34.855 18.888 46.197 41.633 46.197 14.424 0 26.781-3.201 35.91-6.635l6.458 34.471c-12.71 5.472-32.333 8.913-51.149 8.913-51.424 0-79.509-35.143-79.509-95.164 0-64.413 32.577-103.1 75.121-103.1 41.105 0 63.886 34.19 63.886 90.003 0 12.777-.527 19.975-1.37 25.587l-90.98-.272z"/><path d="M522.647 0h306.517v733.828zM306.693 0H0v733.828zm-26.046 586.185l134.059-315.79L609.98 733.788H482.033l-58.415-147.603z" fill="#ed1c24"/></svg>