<svg xmlns="http://www.w3.org/2000/svg" width="420" height="140" version="1.0"><path d="M262.555 107.754H232.02l12.53-16.499h-33.923l-12.087 15.886c-4.52 6.314-4.957 12.686-4.957 17.108v2.5c0 2.89 1.79 4.46 4.446 4.46h64.525c2.602 0 4.358-1.435 4.358-4.372v-14.695c0-2.958-1.756-4.388-4.358-4.388M88.74 49.466c-.486-2.763-2.359-4.125-4.795-4.125h-8.63c-8.979 0-16.903 4.762-21.344 11.957 0 0-8.235 13.167-17.463 27.988h58.585l-6.353-35.82zm96.497.249c0-2.94-1.75-4.374-4.373-4.374H163.3c-2.602 0-4.358 1.435-4.358 4.374v33.29l-16.65-29.93c-3.327-5.515-8.93-7.612-15.468-7.734H113.84c-2.578 0-4.34 1.435-4.34 4.374v35.59h21.822l3.357 5.95H109.5v35.582c0 2.937 1.76 4.397 4.34 4.397h17.608c2.616 0 4.348-1.46 4.348-4.397l-.01-33.5 16.806 30.173c3.293 5.486 8.917 7.583 15.41 7.724h12.861c2.622 0 4.373-1.46 4.373-4.397V91.255h-21.665l-3.347-5.95h25.012v-35.59zm-89.103 41.54H67.202c.739 4.047 6.075 34.137 6.392 35.888.491 2.71 2.179 4.091 4.654 4.091h19.905c1.824 0 2.743-.574 3.6-1.615.583-.725.826-1.824.554-3.434l-6.173-34.93zM11.19 125.849c-.788 1.348-.788 2.763-.306 3.682.554 1.075 1.79 1.703 3.123 1.703H34.68c2.606 0 4.937-1.406 6.235-3.507L63.73 91.255H32.782c-10.623 17.03-21.324 34.2-21.592 34.594m187.42-57.081h29.087l-12.544 16.518h33.913l12.37-16.27c3.818-5.03 4.703-9.534 4.703-13.518V49.83c0-2.904-1.756-4.49-4.431-4.49h-63.099c-2.602 0-4.344 1.435-4.344 4.374v14.694c0 2.929 1.742 4.359 4.344 4.359m144.478-24.603c5.939 0 12.7 5.156 12.7 12.277 0 4.013-1.28 7.112-3.162 9.943-1.206 1.804-2.126 3.881-2.505 5.384-.408 1.698-1.304 5.808 3.721 5.877 3.27.082 11.314-2.763 17.813-10.6 5-6.294 7.972-14.276 7.972-22.983 0-20.347-16.339-36.847-36.54-36.847-20.205 0-36.574 16.5-36.574 36.847 0 8.707 2.968 16.689 7.973 22.983 6.508 7.837 14.548 10.682 17.812 10.6 5.025-.069 4.116-4.179 3.726-5.877-.37-1.503-1.293-3.58-2.51-5.384-1.877-2.83-3.16-5.93-3.16-9.943.014-7.12 6.765-12.277 12.734-12.277m64.635 37.24c-1.498-1.24-4.125-3.05-9.519-3.881-7.486-1.119-14.165.637-18.187 2.232-5.288 2.092-11.801 6.85-16.3 13.046-4.748 6.547-7.205 16.432-4.85 26.734.666 2.9 1.386 4.534 2.461 6.567 1.406 2.763 5.112 6.62 8.357 7.316 2.564.53 4.568-.944 5.55-2.058 6.537-7.573 31.311-36.9 33.996-40.645 2.637-3.721.914-7.297-1.508-9.31m-101.58-1.65c-4.022-1.595-10.696-3.35-18.182-2.232-5.395.832-8.045 2.641-9.524 3.882-2.422 2.013-4.159 5.589-1.508 9.31 2.67 3.745 27.439 33.072 33.976 40.645.983 1.114 2.987 2.588 5.556 2.058 3.264-.696 6.955-4.553 8.356-7.316 1.09-2.033 1.795-3.667 2.48-6.567 2.35-10.302-.145-20.187-4.848-26.734-4.505-6.197-11.028-10.954-16.306-13.046" fill="#007dba"/></svg>