<svg xmlns="http://www.w3.org/2000/svg" width="302.944" height="141.999" viewBox="0 0 80.154 37.571"><path d="M20.055 7.408c-7.249 0-11.694 5.662-11.694 11.377 0 6.88 5.61 11.377 11.747 11.377 4.075 0 7.938-1.799 11.218-4.71v8.52c-3.44 2.064-8.149 3.334-11.8 3.334-10.477 0-19.261-8.52-19.261-18.52C.265 8.201 9.1.264 19.579.264c4.022 0 8.731 1.217 11.8 2.752v8.36c-3.863-2.54-7.778-3.969-11.324-3.969zM53.6 37.306c-10.53 0-19.42-8.202-19.42-18.52C34.18 8.36 43.015.264 54.075.264c4.021 0 8.996 1.058 12.065 2.487v8.307c-3.492-2.01-7.99-3.65-11.906-3.65-7.25 0-11.96 5.66-11.96 11.376 0 6.72 5.557 11.589 12.066 11.589 1.375 0 2.698-.106 4.392-.741v-6.667h-5.926v-7.038h13.546V34.66c-3.864 1.746-8.202 2.646-12.754 2.646zm18.67-.741V1.005h7.62v35.56z" fill="#e11937"/></svg>