<svg version="1.1" id="layer" xmlns="http://www.w3.org/2000/svg" x="0" y="0" viewBox="0 0 652 652" xml:space="preserve"><style>.st0{fill:#1d1f29}</style><path class="st0" d="M57.3 254.3v33.3h71.5c9.4 0 14.3-1.8 14.3-10.1v-13.1c0-8.3-4.9-10.1-14.3-10.1H57.3zm-31.1-21.7h115.9c20.7 0 30.1 6.5 30.1 24.4v27.9c0 17.5-9.4 24.4-30.1 24.4H57.3v49h-31V232.6zm150.4 0h31.7v102.2h100.9v23.5H176.6zm338.5 61.2l-64.8-61.2h41.9l43.2 40.7 40.8-40.7h36.2l-58.7 57.7 72.3 68h-42.8l-49.3-46.9-45.3 46.9h-37.1z"/><path d="M313.6 334.8h132.6v23.4H313.6zm0-102.2h132.6V256H313.6zm0 52.2h132.6v23.4H313.6z" fill="#00a1df"/><path class="st0" d="M37.4 418.7H33v-17.5h-7v-3.7h18.3v3.7h-6.9zm29.8-9h-9.8v9H53v-21.2h4.4v8.6h9.8v-8.6h4.4v21.2h-4.4zm15.3-12.2h14.2v3.2H86.6v5h6.2v3.1h-6.2v6.8h10.1v3.1H82.5zm57 6.5l-6.7 14.2-7-14.1v14.6h-4.2v-21.2h5.7l5.5 11.3 5.5-11.3h5.7v21.2h-4.5zm21.2 7.3h5.8l-2.9-8.5-2.9 8.5zm6.8 2.9h-7.7l-1.6 4.5h-4.8l7.8-21.2h4.7l7.8 21.2h-4.6l-1.6-4.5zm19.8-11.5v16H183v-21.2h5.8l8.9 13.4v-13.4h4.3v21.2h-4.5zm28.4 13.9c-1.6-1.4-2.5-3.5-2.5-6.3v-12.8h4.4v12.2c0 3.4 1.6 5.2 4.8 5.2 3.2 0 4.8-1.7 4.8-5.2v-12.2h4.5v12.8c0 2.8-.8 4.9-2.5 6.3-1.7 1.4-3.9 2.1-6.8 2.1-2.8.1-5-.6-6.7-2.1M247 406h6.3v3.2H247v9.5h-4.2v-21.2h14.1v3.2H247zm24 5.3h5.8l-2.9-8.5-2.9 8.5zm6.8 2.9h-7.7l-1.6 4.5h-4.8l7.8-21.2h4.7l7.8 21.2h-4.6l-1.6-4.5zm24.8-13.1c-2.1 0-3.7.7-4.8 2-1 1.2-1.4 2.9-1.4 5 0 2 .5 3.7 1.5 4.9 1.1 1.4 2.7 2.1 4.7 2.1 1.9 0 3.4-.5 4.6-1.6l4.1 1.8c-2 2.4-4.8 3.6-8.6 3.6-3.2 0-5.8-1-7.9-3.1-2.1-2.1-3.1-4.7-3.1-7.8 0-3.4 1-6 2.9-7.9 2-2 4.7-2.9 8.1-2.9 4.1 0 7 1.3 9 3.9l-3.9 2.1c-1.3-1.4-3-2.1-5.2-2.1m28.6 17.6h-4.4v-17.5h-7v-3.7h18.3v3.7h-6.9zm17.9-2.1c-1.6-1.4-2.5-3.5-2.5-6.3v-12.8h4.4v12.2c0 3.4 1.6 5.2 4.8 5.2 3.2 0 4.8-1.7 4.8-5.2v-12.2h4.5v12.8c0 2.8-.8 4.9-2.5 6.3-1.7 1.4-3.9 2.1-6.8 2.1s-5-.6-6.7-2.1m31.4-15.6v6.2h5.5c1 0 1.8-.3 2.5-.9.7-.6 1-1.3 1-2.3 0-.9-.4-1.6-1-2.2-.7-.6-1.5-.8-2.5-.8h-5.5zm10.7 8.5c-.3.2-.9.6-1.7.9l4 8.3h-4.9l-3.8-8h-4.4v8h-4.3v-21.2h11.2c1.8 0 3.4.6 4.6 1.8 1.2 1.2 1.8 2.8 1.8 4.6 0 1.4-.4 2.7-1.1 3.8-.4.9-.9 1.4-1.4 1.8m12.8-12h4v21.2h-4zm19.2 5.2v16h-4.3v-21.2h5.8l8.9 13.4v-13.4h4.3v21.2h-4.5zm28 13.2c-2.1-2.1-3.1-4.7-3.1-7.8 0-3.4 1-6.1 2.9-8.1 2-2 4.7-3.1 8.1-3.1 3.9 0 6.9 1.4 9 4.2l-3.8 2.1c-.5-.8-1.3-1.4-2.2-1.8-1-.5-2-.7-2.9-.7-4.2 0-6.3 2.5-6.3 7.5 0 2.1.5 3.7 1.5 5 1.1 1.3 2.7 2 4.8 2 1.2 0 2.3-.3 3.3-.8 1.1-.6 1.8-1.5 2.1-2.5h-5v-3.3h9.8v2.1c0 2.4-1.1 4.4-3.3 6.1-2 1.5-4.3 2.3-6.8 2.3-3.4-.1-6-1.2-8.1-3.2m53-14.8c-2.1 0-3.7.7-4.8 2-1 1.2-1.4 2.9-1.4 5 0 2 .5 3.7 1.5 4.9 1.1 1.4 2.7 2.1 4.7 2.1 1.9 0 3.4-.5 4.6-1.6l4.1 1.8c-2 2.4-4.8 3.6-8.6 3.6-3.2 0-5.8-1-7.9-3.1-2.1-2.1-3.1-4.7-3.1-7.8 0-3.4 1-6 2.9-7.9 2-2 4.7-2.9 8.1-2.9 4.1 0 7 1.3 9 3.9l-3.9 2.1c-1.2-1.4-2.9-2.1-5.2-2.1m18.3-3.6h4.3v17.6h10.9v3.6h-15.2zm27.3 10.6c0 4.8 2 7.2 5.9 7.2 4 0 5.9-2.4 5.9-7.2 0-4.8-2-7.1-5.9-7.1-3.9 0-5.9 2.3-5.9 7.1m-1.9 7.9c-1.9-2-2.9-4.6-2.9-7.9 0-3.4.9-6 2.8-7.9 1.8-2 4.5-2.9 7.9-2.9 3.4 0 6 1 7.9 2.9 1.8 2 2.8 4.6 2.8 7.9 0 3.4-.9 6-2.7 8-1.8 2-4.5 2.9-7.9 2.9-3.4 0-6-1-7.9-3m30.8.6c-1.6-1.4-2.5-3.5-2.5-6.3v-12.8h4.4v12.2c0 3.4 1.6 5.2 4.8 5.2 3.2 0 4.8-1.7 4.8-5.2v-12.2h4.5v12.8c0 2.8-.8 4.9-2.5 6.3-1.7 1.4-3.9 2.1-6.8 2.1-2.8.1-5-.6-6.7-2.1m31.4-15.6v14.2h2.1c2.5 0 4.5-.6 6.1-1.7 1.8-1.3 2.6-3 2.6-5.4s-.9-4.1-2.6-5.4c-1.5-1.1-3.6-1.7-6.1-1.7h-2.1zm-4.5 17.7v-21.2h7.5c2.5 0 4.8.5 6.8 1.5 2.2 1.1 3.8 2.7 4.7 4.9.6 1.3.9 2.7.9 4.1 0 2.3-.6 4.2-1.9 6-2.3 3.2-5.9 4.8-10.8 4.8h-7.2z"/></svg>