<svg height="512" viewBox="0 0 512 512" width="512" xmlns="http://www.w3.org/2000/svg"><path d="M256 80.872l-10.008 15.461L256 110.872h105.916v45.048h30V80.872z" fill="#b4d2d7"/><path d="M120.084 80.872v75.048h30v-45.048H256v-30z" fill="#e1ebf0"/><path d="M482.394 286.024L448.909 140.92H256l-20.016 145.104L256 431.128h192.909z" fill="#04303e"/><path d="M63.091 140.92L29.606 286.024l33.485 145.104H256V140.92z" fill="#09607d"/><path d="M0 271.024h256v30H0z" fill="#0b799d"/><path d="M256 271.024h256v30H256z" fill="#09607d"/><path d="M316.036 241H256l-20.016 45.024L256 331.048h60.036z" fill="#87a0af"/><path d="M195.964 241H256v90.048h-60.036z" fill="#b4d2d7"/><path d="M286.036 301.048V271H256l-10.008 15.024L256 301.048z" fill="#b4d2d7"/><path d="M225.964 271H256v30.048h-30.036z" fill="#e1ebf0"/></svg>