<svg xmlns="http://www.w3.org/2000/svg" viewBox="0 0 512 512"><linearGradient id="a" gradientUnits="userSpaceOnUse" x1="-328.291" y1="260.151" x2="-328.291" y2="261.101" gradientTransform="matrix(430.08 0 0 512 141447.313 -133187.313)"><stop offset="0" stop-color="#ff9400"/><stop offset="1" stop-color="#ff5f39"/></linearGradient><path d="M256 0C149.135 0 40.96 24.617 40.96 71.68v1.065C73.544 105.001 147.886 122.88 256 122.88s182.456-17.879 215.04-50.135V71.68C471.04 24.617 362.865 0 256 0M40.96 346.051v94.269C40.96 487.383 149.135 512 256 512s215.04-24.617 215.04-71.68v-94.269C435.63 370.155 371.343 389.12 256 389.12S76.37 370.155 40.96 346.051m0-245.76v95.334C73.544 227.881 147.886 245.76 256 245.76s182.456-17.879 215.04-50.135v-95.334C435.63 124.396 371.343 143.36 256 143.36S76.37 124.396 40.96 100.291M256 266.24c115.343 0 179.63-18.964 215.04-43.069v95.334C438.456 350.761 364.114 368.64 256 368.64S73.544 350.761 40.96 318.505v-95.334C76.37 247.276 140.657 266.24 256 266.24" fill="url(#a)"/></svg>