<svg height="512" viewBox="0 0 256 256" width="512" xmlns="http://www.w3.org/2000/svg"><switch><g><path d="M128 200.833c-.432 0-.863-.112-1.25-.335l-60.91-35.167a2.502 2.502 0 01-1.25-2.165v-53.5a2.5 2.5 0 115 0v52.057L128 195.447l41.429-23.919a2.5 2.5 0 112.5 4.33l-42.679 24.641a2.5 2.5 0 01-1.25.334zm60.91-51.083a2.5 2.5 0 01-2.5-2.5V94.277L128 60.553l-41.465 23.94a2.5 2.5 0 11-2.5-4.33l42.715-24.661a2.503 2.503 0 012.5 0l60.91 35.167a2.502 2.502 0 011.25 2.165v54.416a2.5 2.5 0 01-2.5 2.5z" fill="#ebe7f2"/><path d="M99.517 170.5a2.5 2.5 0 01-2.21-3.67l22.651-42.787H107.6a2.5 2.5 0 01-2.243-3.604l16.511-33.543a2.502 2.502 0 012.243-1.396h32.373a2.5 2.5 0 012.243 3.604l-14.737 29.939h12.494a2.499 2.499 0 011.58 4.438l-56.967 46.457a2.497 2.497 0 01-1.58.562zm12.099-51.457h12.494a2.5 2.5 0 012.21 3.67l-18.821 35.551 41.963-34.221h-9.49a2.5 2.5 0 01-2.243-3.604L152.466 90.5h-26.8zM52.855 97.299c-6.947 0-12.599-5.651-12.599-12.598s5.651-12.599 12.599-12.599c6.947 0 12.599 5.652 12.599 12.599s-5.651 12.598-12.599 12.598zm0-20.196c-4.189 0-7.599 3.409-7.599 7.599 0 4.189 3.409 7.598 7.599 7.598 4.189 0 7.599-3.409 7.599-7.598 0-4.191-3.409-7.599-7.599-7.599z" fill="#f9b087"/><path d="M165.427 190.275L128 211.883l-72.645-41.941V127a2.5 2.5 0 10-5 0v44.385c0 .893.477 1.718 1.25 2.165l75.145 43.385a2.501 2.501 0 002.5 0l38.677-22.33a2.5 2.5 0 00-2.5-4.33zM88.503 66.92L128 44.117l72.645 41.941V129.5a2.5 2.5 0 105 0V84.615c0-.893-.477-1.718-1.25-2.165L129.25 39.065a2.503 2.503 0 00-2.5 0L86.003 62.59a2.5 2.5 0 002.5 4.33zm-27.121 47.529l1.46-5.639 5.019 2.955a5.404 5.404 0 006.564-.836l4.658-4.659a5.404 5.404 0 00.836-6.564l-2.955-5.02 5.639-1.46a5.407 5.407 0 004.051-5.233v-6.588a5.407 5.407 0 00-4.051-5.233l-5.639-1.459 2.955-5.019a5.406 5.406 0 00-.836-6.565l-4.658-4.659a5.405 5.405 0 00-6.564-.835l-5.019 2.955-1.46-5.639a5.405 5.405 0 00-5.232-4.05h-6.588a5.401 5.401 0 00-5.232 4.05l-1.46 5.639-5.019-2.955a5.405 5.405 0 00-6.564.836l-4.658 4.658a5.404 5.404 0 00-.836 6.564l2.955 5.02-5.64 1.459a5.406 5.406 0 00-4.05 5.233v6.588a5.404 5.404 0 004.051 5.233l5.639 1.46-2.955 5.019a5.404 5.404 0 00.836 6.564l4.658 4.659a5.404 5.404 0 006.564.835l5.019-2.955 1.459 5.637a5.404 5.404 0 005.233 4.052h6.588a5.398 5.398 0 005.232-4.048zm-12.213-1.253l-2.246-8.688a2.502 2.502 0 00-1.531-1.862 2.464 2.464 0 00-.931-.181c-.521 0-1.037.161-1.471.472l-7.678 4.52a.406.406 0 01-.492-.063l-4.658-4.659a.407.407 0 01-.063-.493l4.55-7.723c.486-.699.558-1.604.232-2.391s-1.058-1.359-1.896-1.51l-8.624-2.232a.406.406 0 01-.304-.393v-6.588c0-.184.125-.346.303-.392l8.679-2.244c.839-.15 1.528-.74 1.854-1.527s.214-1.709-.274-2.408L30.1 67.158a.406.406 0 01.063-.493l4.658-4.658a.405.405 0 01.492-.063l7.695 4.531c.695.498 1.604.573 2.398.253a2.556 2.556 0 001.529-1.898l2.234-8.626a.404.404 0 01.392-.302h6.588c.185 0 .346.125.393.304l2.24 8.662c.146.846.73 1.547 1.522 1.876a2.533 2.533 0 002.416-.278l7.678-4.52a.405.405 0 01.492.063l4.658 4.658a.407.407 0 01.063.493l-4.536 7.702c-.497.699-.577 1.608-.252 2.402s1.059 1.37 1.902 1.52l8.624 2.232c.18.046.305.208.305.392v6.588a.406.406 0 01-.305.393l-8.673 2.243a2.499 2.499 0 00-1.869 1.527 2.525 2.525 0 00.284 2.409l4.52 7.678a.404.404 0 01-.063.492l-4.658 4.658a.406.406 0 01-.492.063l-7.711-4.541a2.506 2.506 0 00-2.403-.249 2.534 2.534 0 00-1.51 1.904l-2.232 8.624a.406.406 0 01-.393.304h-6.588a.407.407 0 01-.392-.305zm183.725 50.264h-.001l-5.639-1.459 2.955-5.019a5.404 5.404 0 00-.836-6.564l-4.658-4.659a5.405 5.405 0 00-6.564-.835l-5.02 2.955-1.459-5.637a5.404 5.404 0 00-5.233-4.052h-6.588a5.405 5.405 0 00-5.232 4.05l-1.46 5.639-5.02-2.956a5.407 5.407 0 00-6.564.836l-4.659 4.659a5.404 5.404 0 00-.836 6.564l2.955 5.02-5.64 1.46a5.406 5.406 0 00-4.05 5.233v6.588a5.406 5.406 0 004.051 5.233l5.639 1.46-2.955 5.019a5.406 5.406 0 00.836 6.565l4.658 4.658a5.405 5.405 0 006.565.836l5.019-2.955 1.46 5.639a5.405 5.405 0 005.232 4.05h6.588a5.401 5.401 0 005.232-4.05l1.46-5.639 5.02 2.955a5.404 5.404 0 006.564-.836l4.658-4.659a5.404 5.404 0 00.836-6.564l-2.955-5.02 5.64-1.46a5.406 5.406 0 004.05-5.233v-6.588a5.406 5.406 0 00-4.049-5.234zm-.951 11.822a.405.405 0 01-.303.392l-8.679 2.244a2.506 2.506 0 00-1.866 1.528 2.53 2.53 0 00.285 2.407l4.52 7.678a.404.404 0 01-.063.492l-4.658 4.658a.407.407 0 01-.492.063l-7.711-4.542a2.506 2.506 0 00-2.402-.249 2.532 2.532 0 00-1.51 1.904l-2.234 8.627a.404.404 0 01-.392.302h-6.588a.406.406 0 01-.393-.304l-2.24-8.659a2.502 2.502 0 00-1.521-1.877 2.478 2.478 0 00-.949-.188c-.519 0-1.035.16-1.468.465l-7.676 4.52a.406.406 0 01-.493-.063l-4.659-4.658a.407.407 0 01-.063-.493l4.536-7.703c.497-.699.577-1.608.252-2.401a2.546 2.546 0 00-1.903-1.52l-8.624-2.232a.406.406 0 01-.304-.393v-6.588c0-.185.125-.347.303-.393l8.66-2.24a2.506 2.506 0 001.877-1.522 2.533 2.533 0 00-.277-2.416l-4.52-7.678a.404.404 0 01.063-.492l4.66-4.66a.405.405 0 01.491-.062l7.71 4.542a2.504 2.504 0 002.403.249 2.534 2.534 0 001.51-1.904l2.232-8.624a.406.406 0 01.393-.304h6.588c.184 0 .346.124.393.303l2.24 8.662c.145.846.73 1.547 1.522 1.876a2.535 2.535 0 002.416-.278l7.678-4.52a.405.405 0 01.492.063l4.658 4.659a.407.407 0 01.063.493l-4.555 7.73c-.485.702-.56 1.606-.23 2.393s1.059 1.355 1.899 1.5l8.625 2.232a.406.406 0 01.303.393v6.588z" fill="#846f75"/><path d="M203.145 184.586c-6.947 0-12.599-5.651-12.599-12.598s5.651-12.599 12.599-12.599c6.947 0 12.599 5.652 12.599 12.599-.001 6.947-5.652 12.598-12.599 12.598zm0-20.197c-4.189 0-7.599 3.409-7.599 7.599 0 4.189 3.409 7.598 7.599 7.598 4.189 0 7.599-3.409 7.599-7.598-.001-4.19-3.41-7.599-7.599-7.599z" fill="#f9b087"/></g></switch></svg>