<svg xmlns="http://www.w3.org/2000/svg" viewBox="0 0 512 512"><linearGradient id="a" gradientUnits="userSpaceOnUse" x1="-329.684" y1="261.53" x2="-329.684" y2="262.53" gradientTransform="matrix(512 0 0 471.0298 169054.36 -123167.406)"><stop offset="0" stop-color="#ffdb4a"/><stop offset="1" stop-color="#ffbb01"/></linearGradient><path d="M506.348 246.84a10.257 10.257 0 010 18.33l-245.76 122.88a10.256 10.256 0 01-4.588 1.065c-1.556 0-3.133-.348-4.567-1.065L5.673 265.17A10.284 10.284 0 010 255.995c0-3.871 2.212-7.414 5.673-9.155l61.174-30.597 175.411 87.716c4.239 2.13 9.011 3.236 13.742 3.236 4.751 0 9.503-1.106 13.742-3.236l175.432-87.716 61.174 30.597zm0 102.4a10.257 10.257 0 010 18.33l-245.76 122.88a10.256 10.256 0 01-4.588 1.065c-1.556 0-3.133-.348-4.567-1.065L5.673 367.57A10.284 10.284 0 010 358.395c0-3.871 2.212-7.414 5.673-9.155l61.174-30.597 175.411 87.716c4.239 2.13 9.011 3.236 13.742 3.236 4.751 0 9.503-1.106 13.742-3.236l175.432-87.716 61.174 30.597zm0-204.8a10.257 10.257 0 010 18.33l-245.76 122.88a10.256 10.256 0 01-4.588 1.065c-1.556 0-3.133-.348-4.567-1.065L5.673 162.77A10.284 10.284 0 010 153.595c0-3.871 2.212-7.414 5.673-9.155l245.76-122.88a10.279 10.279 0 019.155 0l245.76 122.88z" fill="url(#a)"/></svg>