<svg xmlns="http://www.w3.org/2000/svg" viewBox="0 0 512 512"><linearGradient id="a" gradientUnits="userSpaceOnUse" x1="-355.364" y1="171.778" x2="-355.364" y2="172.768" gradientTransform="matrix(512 0 0 471.0441 182202.516 -80893.063)"><stop offset="0" stop-color="#ffdb4a"/><stop offset="1" stop-color="#ffbb01"/></linearGradient><path d="M512 358.403c0 3.871-2.191 7.414-5.652 9.155l-245.76 122.88a10.34 10.34 0 01-4.588 1.085c-1.577 0-3.133-.369-4.588-1.085L5.652 367.557C2.191 365.816 0 362.273 0 358.403s2.191-7.414 5.652-9.155l56.525-28.262c5.059-2.539 11.203-.471 13.742 4.567 2.54 5.079.471 11.203-4.588 13.742l-38.195 19.108L256 469.834l222.863-111.432-38.195-19.108c-5.059-2.54-7.127-8.663-4.588-13.742 2.54-5.038 8.663-7.107 13.742-4.567l56.525 28.262a10.259 10.259 0 015.653 9.156zm0-102.4c0 3.871-2.191 7.414-5.652 9.155l-245.76 122.88a10.34 10.34 0 01-4.588 1.085c-1.577 0-3.133-.369-4.588-1.085L5.652 265.157C2.191 263.416 0 259.873 0 256.003s2.191-7.414 5.652-9.155l56.525-28.262c5.059-2.54 11.203-.492 13.742 4.567 2.54 5.079.471 11.203-4.588 13.742l-38.195 19.108L256 367.434l222.863-111.432-38.195-19.108c-5.059-2.54-7.127-8.663-4.588-13.742a10.227 10.227 0 0113.742-4.567l56.525 28.262a10.259 10.259 0 015.653 9.156zM256 42.171l222.863 111.432L256 265.034 33.137 153.603 256 42.171zM5.652 162.757l245.76 122.88a10.34 10.34 0 004.588 1.085c1.577 0 3.133-.369 4.588-1.085l245.76-122.88c3.461-1.741 5.652-5.284 5.652-9.155s-2.191-7.414-5.652-9.155l-245.76-122.88a10.195 10.195 0 00-9.175 0L5.652 144.448C2.191 146.189 0 149.732 0 153.603s2.191 7.413 5.652 9.154z" fill="url(#a)"/></svg>