<svg xmlns="http://www.w3.org/2000/svg" viewBox="0 0 512 512"><path d="M10.24 256C10.24 120.279 120.279 10.24 256 10.24S501.76 120.279 501.76 256 391.721 501.76 256 501.76 10.24 391.721 10.24 256" fill="#fc0"/><path d="M367.595 231.014a10.22 10.22 0 01-1.126 10.772l-143.36 184.32a10.183 10.183 0 01-8.09 3.973c-1.556 0-3.154-.369-4.608-1.106a10.238 10.238 0 01-5.222-11.96l37.233-130.294H153.6a10.234 10.234 0 01-9.196-5.755 10.22 10.22 0 011.106-10.772l143.36-184.32c3.011-3.871 8.335-5.038 12.718-2.867a10.282 10.282 0 015.222 11.96L269.578 225.28H358.4c3.912 0 7.475 2.212 9.195 5.734M256 491.52C126.116 491.52 20.48 385.864 20.48 256S126.116 20.48 256 20.48c129.864 0 235.52 105.656 235.52 235.52S385.864 491.52 256 491.52M256 0C114.831 0 0 114.831 0 256c0 141.148 114.831 256 256 256 141.148 0 256-114.852 256-256C512 114.831 397.148 0 256 0"/><path d="M500.715 225.28c-5.325 0-9.769 4.076-10.199 9.4C480.522 355.738 377.487 450.56 256 450.56c-121.508 0-224.522-94.822-234.516-215.88-.451-5.325-4.895-9.4-10.199-9.4-5.325 0-9.769 4.076-10.199 9.4C.492 241.725 0 248.791 0 256c0 141.169 114.831 256 256 256 141.148 0 256-114.831 256-256 0-7.209-.512-14.275-1.085-21.32-.431-5.324-4.875-9.4-10.2-9.4" opacity=".12"/></svg>