<svg version="1.1" id="Layer_1" xmlns="http://www.w3.org/2000/svg" x="0" y="0" viewBox="0 0 231.7 50.2" xml:space="preserve"><style>.st0{fill:#fff}.st1{fill:#2e7de1}</style><path class="st0" d="M161.8 38.2h-2.1l-.9-1.5c-1.6 1-3.4 1.5-5.3 1.5-4.1 0-6.2-1.8-6.2-5.3 0-3.6 2.3-5.4 7-5.4 1.3 0 2.7.1 4 .3v-1.2c0-1.7-1.4-2.5-4.1-2.5-1.7 0-3.4.3-5.1.8l-.4.1v-3l.2-.1c1.8-.5 3.6-.8 5.3-.8 5.1 0 7.6 1.8 7.6 5.4v11.7zm-7.5-7.7c-2.3 0-3.5.8-3.5 2.4 0 1.6.9 2.4 2.7 2.4 1.9 0 3.5-.5 4.8-1.5v-3c-1.3-.2-2.7-.3-4-.3zm-81.2 7.7h-3.5V27.5c0-1.8-1.4-3.3-3.2-3.4h-.2c-1.5 0-3 .6-4.4 1.9v12.1h-3.5V14.7h1.8c.9 0 1.7.8 1.7 1.7v6.2c1.4-1 3-1.5 4.8-1.5 4.3 0 6.5 2.2 6.5 6.4v10.7zm16.8 0h-2.1l-.9-1.5c-1.6 1-3.4 1.5-5.3 1.5-4.1 0-6.2-1.8-6.2-5.3 0-3.6 2.3-5.4 7-5.4 1.3 0 2.7.1 4 .3v-1.2c0-1.7-1.4-2.5-4.1-2.5-1.7 0-3.4.3-5.1.8l-.4.1v-3l.2-.1c1.8-.5 3.6-.8 5.3-.8 5.1 0 7.6 1.8 7.6 5.4v11.7zm-7.5-7.7c-2.3 0-3.5.8-3.5 2.4 0 1.6.9 2.4 2.7 2.4 1.9 0 3.5-.5 4.8-1.5v-3c-1.3-.2-2.6-.3-4-.3zm23.5 7.7H92.4v-2.6l.1-.1 9.6-11.4h-9.3v-2.9h13.4v2.7l-.1.1-9.4 11.4h9.2v2.8zm10.5 0c-5.8 0-8.8-2.9-8.8-8.7 0-5.5 2.6-8.3 7.9-8.3 4.9 0 7.3 2.4 7.3 7.2 0 .7 0 1.4-.1 2.2v.3h-11.5c.1 3 1.9 4.5 5.6 4.5 1.8 0 3.5-.2 4.9-.6l.4-.1v3l-.2.1c-1.6.1-3.4.4-5.5.4zm-5.2-10.5h8.3c-.1-2.5-1.4-3.7-3.9-3.7-2.7 0-4.2 1.2-4.4 3.7zm18 10.5h-3.5V14.7h1.8c.9 0 1.7.8 1.7 1.7v21.8zm11.6 0c-6 0-9.1-3-9.1-8.8 0-5.5 3.1-8.2 9.1-8.2 1.6 0 3.1.2 4.5.5l.2.1v3l-.4-.1c-1.3-.3-2.8-.5-4.5-.5-3.7 0-5.4 1.7-5.4 5.3 0 4 1.8 5.9 5.4 5.9 1.6 0 3.2-.2 4.5-.5l.4-.1v3l-.2.1c-1.4.1-2.9.3-4.5.3zm30.5 0c-2 0-4-.3-5.9-.8l-.2-.1v-3.1l.4.1c1.9.6 3.8.9 5.8.9 3.6 0 3.6-1.6 3.6-2.1 0-.8-.3-1.9-2.5-1.9h-2.4c-3.7 0-5.6-1.7-5.6-5.2 0-3.3 2.4-5 7.1-5 2 0 4 .3 5.9.8l.2.1V25l-.4-.1c-1.9-.6-3.8-.9-5.8-.9-3.8 0-3.8 1.6-3.8 2.1 0 1.3.7 1.9 2.3 1.9h2.4c3.9 0 5.9 1.7 5.9 5.2.1 3.3-2.3 5-7 5zm17.2 0h-3.1c-2.9 0-4.4-1.6-4.4-4.7v-15h2.3l.6 2.7h4.5V24h-4v9.2c0 1.4.5 2 1.7 2h2.3v3h.1z"/><path class="st1" d="M202.7 21v12.1c0 3.3-2.2 4.9-6.7 4.9v-2.7c2.4 0 3.6-.7 3.6-2.2V21h3.1zm14.8 0v2.7H209V28h8.1v2.8H209v4.5h8.7V38h-11.8V21h11.6zm14.2 0v2.7h-4.9V38h-3.2V23.7h-4.9V21h13z"/><path class="st0" d="M22.7 18.5c.2-.1.4-.1.6-.2 0-.4-.1-.8-.1-1.2-.1-2.9.2-5.7.9-8.2l.2-.7c-1.3-1.6-3-2.8-4.8-3.7-.9.2-1.8.5-2.7.9l.8 1.9 5.1 11.2zm-11.6-7.4l9.3 8.8c.2-.1.3-.3.5-.4-.2-.4-.4-.7-.5-1.1-1.2-2.6-2-5.4-2.3-7.9l-.1-.7c-1.8-1-3.8-1.5-5.8-1.6-.9.5-1.6 1.1-2.2 1.8l1.1 1.1zm-4.3 6.4l11.9 4.6.3-.6c-.3-.3-.6-.5-.9-.8-2.1-2-3.9-4.2-5.2-6.5l-.4-.6c-2.1-.2-4.1.1-6 .7-.5.8-.9 1.7-1.3 2.5l1.6.7zm-1.5 7.6l12.7-.3c0-.2 0-.4.1-.6-.4-.1-.7-.3-1.1-.4-2.7-1-5.2-2.4-7.3-4l-.6-.4c-2 .6-3.8 1.6-5.3 3-.1.9-.2 1.9-.2 2.8h1.8l-.1-.1z"/><path class="st1" d="M39.1 11.1l-8.8 9.3c.1.1.3.3.4.5l1.2-.6c2.6-1.2 5.4-2 7.9-2.3l.7-.1c1-1.8 1.5-3.8 1.6-5.9-.6-.7-1.2-1.5-1.9-2.1l-1.1 1.2z"/><path class="st0" d="M25.4 18.1c.2 0 .4 0 .6.1.1-.4.3-.8.4-1.2 1-2.7 2.4-5.2 4-7.3l.5-.6c-.6-2-1.6-3.8-3-5.3-.9-.1-1.9-.2-2.8-.2V6l.3 12.1z"/><path class="st1" d="M28.1 18.8c.2.1.4.2.5.3l.9-.9c2-2.1 4.2-3.9 6.4-5.2l.7-.4c.2-2.1-.1-4.1-.7-6-.8-.5-1.7-.9-2.5-1.3l-.8 1.9-4.5 11.6z"/><path class="st0" d="M43.4 17.6l-11.7 5.2c.1.2.1.4.2.6.4 0 .9-.1 1.3-.1 2.9-.1 5.7.2 8.2.9l.7.2c1.6-1.3 2.9-3 3.8-4.8-.2-.9-.5-1.8-.9-2.7l-1.6.7zM27.5 31.7c-.2.1-.4.1-.6.2 0 .4.1.8.1 1.3.1 2.9-.2 5.7-.9 8.2l-.2.7c1.3 1.6 3 2.8 4.8 3.7.9-.2 1.8-.5 2.7-.9l-.9-1.9-5-11.3zm11.6 7.4l-9.3-8.9c-.1.1-.3.3-.5.4l.6 1.2c1.2 2.6 2 5.4 2.3 7.9l.1.7c1.8 1 3.8 1.5 5.8 1.6.7-.6 1.5-1.2 2.1-1.9l-1.1-1zm4.3-6.4l-12-4.6c-.1.2-.2.4-.3.5.3.3.7.6 1 .9 2.1 2 3.9 4.2 5.2 6.5l.4.6c2.1.2 4.1-.1 6-.7.5-.8.9-1.7 1.3-2.5l-1.6-.7zm1.3-7.6h.1l-12.8.4c0 .2 0 .4-.1.6.4.1.8.3 1.3.4 2.7 1 5.2 2.4 7.3 4l.6.4c2-.6 3.8-1.6 5.3-3 .1-.9.2-1.9.2-2.8h-1.9zm-22.6 6.4l-.6-.3c-.3.3-.5.6-.8.9-2 2.1-4.2 3.9-6.4 5.2l-.7.4c-.2 2.1.1 4.1.7 6 .8.5 1.7.9 2.5 1.3l.8-1.9 4.5-11.6zm-11 7.5l8.7-9.2c-.1-.2-.3-.3-.4-.5-.3.2-.7.3-1.1.5-2.6 1.2-5.4 2-7.9 2.3l-.7.1c-1 1.8-1.5 3.8-1.6 5.9.6.7 1.2 1.5 1.9 2.1l1.1-1.2zm-4.3-6.4l11.6-5.1c-.1-.2-.1-.4-.2-.6-.4 0-.8 0-1.2.1h-.8c-2.6 0-5.1-.3-7.4-.9l-.7-.2c-1.6 1.3-2.9 3-3.8 4.8.2.9.5 1.8.9 2.7l1.6-.8zm18-.5h-.6c-.1.4-.3.8-.4 1.2-1 2.7-2.4 5.2-4 7.3l-.5.6c.6 2 1.6 3.8 3 5.3.9.1 1.9.2 2.8.2v-2.3l-.3-12.3z"/><circle class="st0" cx="25" cy="25.1" r="5.2"/><path class="st0" d="M25.1 50.2C11.3 50.2 0 38.9 0 25.1S11.3 0 25.1 0s25.1 11.3 25.1 25.1-11.3 25.1-25.1 25.1zm0-48.6C12.2 1.6 1.6 12.2 1.6 25.1s10.5 23.5 23.5 23.5C38 48.6 48.6 38 48.6 25.1S38 1.6 25.1 1.6z"/></svg>