<svg height="512" viewBox="0 0 64 64" width="512" xmlns="http://www.w3.org/2000/svg"><path d="M50.5 33H42v-2h8.5c2.531 0 4.915-.99 6.713-2.787A9.435 9.435 0 0060 21.5c0-5.238-4.262-9.5-9.5-9.5H42v-2h8.5C56.84 10 62 15.159 62 21.5a11.42 11.42 0 01-3.373 8.127A11.422 11.422 0 0150.5 33zM22 54h-8.5a11.422 11.422 0 01-8.127-3.373A11.42 11.42 0 012 42.5C2 36.159 7.16 31 13.5 31H22v2h-8.5C8.262 33 4 37.262 4 42.5c0 2.532.99 4.916 2.787 6.713A9.436 9.436 0 0013.5 52H22zm20-2h7v2h-7z" fill="#223b5a"/><path d="M21 3h22v16H21z" fill="#50b6cf"/><path d="M40 40H18l6-16h22z" fill="#f5a947"/><path d="M21 45h22v16H21z" fill="#50b6cf"/><path d="M43 51c-4.56 3.204-12.61 5.454-22 5.852v4.064h22z" fill="#3cadc9"/><circle cx="54" cy="53" fill="#e34e4b" r="7"/><path d="M57.638 47.028a6.956 6.956 0 011.029 3.639 7 7 0 01-7 7 6.956 6.956 0 01-3.639-1.029A6.989 6.989 0 0054 60a7 7 0 007-7 6.989 6.989 0 00-3.362-5.972z" fill="#de4542"/><path d="M43 9.084c-4.56 3.204-12.61 5.454-22 5.852V19h22z" fill="#3cadc9"/><path d="M44.396 28.276c-4.787 3.928-13.926 6.796-24.825 7.534L18 40h22z" fill="#f09d3a"/><path d="M24 6h16v2H24zm0 4h16v2H24zm0 4h16v2H24zm3 13h14v2H27zm-2 4h14v2H25zm-2 4h14v2H23zm1 13h16v2H24zm0 4h16v2H24zm0 4h16v2H24zm29 .414l-2.707-2.707 1.414-1.414L53 53.586l3.293-3.293 1.414 1.414z" fill="#223b5a"/></svg>