<svg xmlns="http://www.w3.org/2000/svg" viewBox="0 0 512 512"><path d="M177.47 244.428l-15.352-25.782 171.738-103.187 15.352 25.781zM332.274 401.58l-165.483-84.569 13.535-26.778 165.484 84.57z" fill="#0095ff"/><path d="M406 0c-49.501 0-90 40.499-90 90 0 49.499 40.499 90 90 90s90-40.501 90-90c0-49.501-40.499-90-90-90zm0 332c-49.501 0-90 40.499-90 90 0 49.499 40.499 90 90 90s90-40.501 90-90c0-49.501-40.499-90-90-90zM106 181c-49.501 0-90 40.499-90 90 0 49.499 40.499 90 90 90s90-40.501 90-90c0-49.501-40.499-90-90-90z" fill="#00abe9"/><path d="M496 422c0 49.499-40.499 90-90 90V332c49.501 0 90 40.499 90 90zm-90-242V0c49.501 0 90 40.499 90 90 0 49.499-40.499 90-90 90zm-210 91c0 49.499-40.499 90-90 90V181c49.501 0 90 40.499 90 90z" fill="#0095ff"/></svg>