<svg height="512" viewBox="0 0 512 512" width="512" xmlns="http://www.w3.org/2000/svg"><path d="M317 46h-15v60h30V46z" fill="#474f54"/><path d="M317 46h15v60h-15z" fill="#32393f"/><path d="M60 391h122.835v30H60zm-30-60h117.239v30H30zM0 271h137v30H0zm30-60h117.239v30H30zm30-60h122.835v30H60z" fill="#dfe7f4"/><circle cx="317" cy="286" fill="#ff641a" r="195"/><path d="M512 286c0-107.52-87.48-195-195-195v390c107.52 0 195-87.48 195-195z" fill="#f03800"/><path d="M481.24 271c-7.165-79.021-70.219-142.075-149.24-149.24L317 136l-15-14.24c-79.021 7.165-142.075 70.219-149.24 149.24L167 286l-14.24 15c7.165 79.021 70.219 142.075 149.24 149.24L317 436l15 14.24c79.021-7.165 142.075-70.219 149.24-149.24L467 286z" fill="#edf5ff"/><path d="M481.24 301L467 286l14.24-15c-7.165-79.021-70.219-142.075-149.24-149.24L317 136v300l15 14.24c79.021-7.165 142.075-70.219 149.24-149.24z" fill="#dfe7f4"/><path d="M182 271h-29.24c-.449 4.948-.76 9.937-.76 15s.311 10.052.76 15H182z" fill="#474f54"/><path d="M481.24 271H452v30h29.24c.449-4.948.76-9.937.76-15s-.311-10.052-.76-15z" fill="#32393f"/><path d="M317 236.622l-18.501 8.348C282.4 252.235 272 268.334 272 286c0 24.814 20.186 45 45 45 17.666 0 33.765-10.4 41.03-26.499l48.955-108.486z" fill="#ff641a"/><path d="M358.03 304.501l48.955-108.486L317 236.622V331c17.666 0 33.765-10.4 41.03-26.499z" fill="#f03800"/><path d="M302 421v29.24c4.948.449 9.937.76 15 .76s10.052-.311 15-.76V421h-15zm15-300c-5.063 0-10.052.311-15 .76V151h30v-29.24c-4.948-.449-9.937-.76-15-.76z" fill="#474f54"/><path d="M332 121.76c-4.948-.449-9.937-.76-15-.76v30h15zM332 421h-15v30c5.063 0 10.052-.311 15-.76z" fill="#32393f"/><path d="M317 31h-45v30h90V31z" fill="#ff641a"/><path d="M317 31h45v30h-45z" fill="#f03800"/></svg>