<svg data-name="Layer 1" xmlns="http://www.w3.org/2000/svg" xmlns:xlink="http://www.w3.org/1999/xlink" width="655.21" height="773.33" viewBox="0 0 655.21 773.33"><defs><linearGradient id="a" x1="632.2" y1="425.85" x2="632.2" y2="110.31" gradientTransform="rotate(-28.4 341.995 766.935)" gradientUnits="userSpaceOnUse"><stop offset="0" stop-color="gray" stop-opacity=".25"/><stop offset=".54" stop-color="gray" stop-opacity=".12"/><stop offset="1" stop-color="gray" stop-opacity=".1"/></linearGradient><linearGradient id="b" x1="664.16" y1="377.34" x2="664.16" y2="60.09" gradientTransform="rotate(-28.4 607.434 255.132)" xlink:href="#a"/><linearGradient id="c" x1="493.33" y1="829.29" x2="493.33" y2="337.18" gradientTransform="rotate(-18.16 90.13 1382.03)" xlink:href="#a"/></defs><path fill="url(#a)" d="M346.31 377.42l-18.75-1.75L381.28 0l20.17 2.17-55.14 375.25z"/><path fill="#263238" d="M332.697 375.216L381.2 54.887l8.265 1.252-48.502 320.329z"/><path fill="none" stroke="#263238" stroke-miterlimit="10" stroke-width="8" d="M383.36 56.78l7.02-49.79"/><path d="M916.65 224.85C620.35-27.9 367 163.34 367 163.34z" transform="translate(-272.39 -63.33)" fill="url(#b)"/><path d="M626.61 154.44c-275.88-235.17-511.93-57-511.93-57z" fill="#ff5f00"/><path fill="url(#c)" d="M19.03 305.73l15.12 46.1 15.84 48.3 15.12 46.1 15.84 48.3 15.12 46.1 15.85 48.3 15.12 46.1 15.84 48.3 15.12 46.1 14.4 43.91L429.53 689l-14.4-43.91-15.12-46.1-15.84-48.3-15.12-46.1-15.85-48.3-15.12-46.1-15.84-48.29-15.12-46.11-15.84-48.29-15.12-46.1-257.13 84.33z"/><path fill="#ff5f00" d="M27.71 310.208l246.185-80.751L422.173 681.51l-246.185 80.75z"/><path fill="#fff" opacity=".5" d="M27.708 310.215l246.184-80.751 14.618 44.564-246.185 80.75zm29.932 91.256l246.185-80.751 14.617 44.564-246.185 80.75zm29.929 91.253l246.184-80.75 14.618 44.563-246.185 80.751zm29.932 91.256l246.185-80.75 14.617 44.563-246.184 80.751zm29.932 91.256l246.185-80.75 14.618 44.563L162.05 719.8z"/><path d="M222.45 423.74s48.52-63 12.22-80.51-74.13-7.42-74.13-7.42l3.83 11.67s92.48 9.63 34.31 61.61zm-76.69 25.15s-76.42-22-57.53-57.63 55.38-49.88 55.38-49.88l3.83 11.67s-68.81 62.53 8.85 70z" fill="#ffe0d6"/><path d="M91.42 390.22c15.58-29.35 43.09-44.21 52.25-48.52l-.1-.32s-36.44 14.3-55.33 49.88 57.53 57.63 57.53 57.63l.73-1.8c-12.89-4.16-71.89-25.13-55.08-56.87zm140.07-45.94c-29.94-14.42-60.91-10.1-70.84-8.15l-.1-.32s37.84-10.06 74.13 7.42-12.22 80.51-12.22 80.51l-1.66-1c7.94-11.07 43.07-62.87 10.69-78.46z" opacity=".2"/><circle cx="430.71" cy="421.03" r="60.31" transform="rotate(-18.16 96.344 1241.56)" fill="#ff7185"/><path d="M215.75 532.79c-21.6 7.08-38.14 16.43-45.14-5.12l-23-70a41.44 41.44 0 0126.38-52.14 41.44 41.44 0 0152.14 26.38l23 70c7.05 21.55-11.79 23.76-33.38 30.88z" fill="#ff8976"/><path d="M218.93 531.74l-1.59.53c5.33-1.7 10.45-3.15 15-4.7-4.18 1.33-8.73 2.64-13.41 4.17zm-45.18-5.16l-23-70a41.44 41.44 0 0124.86-51.61c-.54.15-1.07.31-1.61.48a41.44 41.44 0 00-26.39 52.14l23 70c5.55 16.91 16.87 14.84 31.9 9.75-13.48 4.33-23.61 4.94-28.76-10.76z" opacity=".2"/><path d="M251.01 507.67s49.72 42.92 50 80.1a138.3 138.3 0 001.17 18.19l5.45 53-22.63 6.25-8.79-66.42a22.39 22.39 0 00-4.13-10.28l-19.27-26.4a16.64 16.64 0 00-18.62-6 16.64 16.64 0 00-9.73 23.18l19.48 39.44 18 83.43-22.33 7.32s-18.76-64.37-34.51-94.46-32.09-81.74-32.09-81.74z" fill="#5caade"/><rect x="437.44" y="452.03" width="17.87" height="33.5" rx="8" ry="8" transform="rotate(-18.16 112.008 1289.303)" fill="#ffe0d6"/><path d="M162.4 398.82s8.79 3.26 16.76-5.44" opacity=".2"/><circle cx="430.71" cy="421.03" r="41.32" transform="rotate(-18.16 96.344 1241.56)" fill="#ffe0d6"/><path d="M119.61 329.26s3.73 32.86 73.47-1.77l-25.68-21-25.09 2.35z" fill="#ff7185"/><path d="M176.26 372.97c.77 2.34-3.49 7-9.93 9.13s-12.64.87-13.41-1.48 4.18-4.9 10.63-7 11.94-2.95 12.71-.65z" fill="#fff"/><rect x="428.33" y="426.28" width="8.93" height="2.23" rx="1" ry="1" transform="rotate(-18.16 98.439 1247.926)" opacity=".1"/><circle cx="409.19" cy="416.33" r="2.23" transform="rotate(-18.16 74.827 1236.87)" fill="#383f4d"/><circle cx="445.27" cy="404.5" r="2.23" transform="rotate(-18.16 110.891 1225.018)" fill="#383f4d"/><path d="M123.61 352.14l3.07 9.37a4 4 0 005 2.56l15.74-5.16a4 4 0 002.56-5l-3.07-9.37a4 4 0 00-5-2.56l-15.74 5.16a4 4 0 00-2.56 5zm21.24 5.92l-11.5 3.77a4 4 0 01-5-2.56l-2.06-6.29a4 4 0 012.56-5l11.5-3.77a4 4 0 015 2.56l2.06 6.29a4 4 0 01-2.58 5z" fill="#e75f7e"/><rect x="399.14" y="408.51" width="20.1" height="15.63" rx="3.58" ry="3.58" transform="rotate(-18.16 74.827 1236.87)" fill="#e75f7e" opacity=".2"/><path d="M147.89 349.81l-1-.58c.06-.09 6.77-9.54 15.59-5.08l-.5 1c-7.87-4-13.88 4.32-14.09 4.66z" fill="#e75f7e"/><ellipse cx="469.97" cy="408.15" rx="3.35" ry="7.82" transform="rotate(-4.97 -396.085 3514.675)" fill="#ffe0d6"/><ellipse cx="391.45" cy="433.9" rx="3.35" ry="7.82" transform="rotate(-31.35 142.402 887.587)" fill="#ffe0d6"/><path d="M121.31 327.73l-1.7 1.53s3.73 32.86 73.47-1.77l-2.57-2.1c-54.79 26.21-66.71 9.05-69.2 2.34z" fill="#fff" opacity=".2"/><path d="M159.67 340.31l3.07 9.37a4 4 0 005 2.56l15.74-5.16a4 4 0 002.56-5l-3.03-9.41a4 4 0 00-5-2.56l-15.74 5.16a4 4 0 00-2.6 5.04zm21.24 5.92l-11.5 3.77a4 4 0 01-5-2.56l-2.06-6.29a4 4 0 012.56-5l11.5-3.77a4 4 0 015 2.56l2.06 6.29a4 4 0 01-2.57 5z" fill="#e75f7e"/><rect x="435.22" y="396.68" width="20.1" height="15.63" rx="3.58" ry="3.58" transform="rotate(-18.16 110.891 1225.018)" fill="#e75f7e" opacity=".2"/><path d="M209.36 613.67c-15.75-30.09-32.09-81.74-32.09-81.74l-4.24 1.39s16.34 51.64 32.09 81.74 34.49 94.42 34.49 94.42l4.24-1.39s-18.75-64.37-34.49-94.42z" opacity=".2"/><path d="M239.61 709.48l7 21.19 33.21-2.67s4.63-7.39-3.48-10.61-14.41-15.26-14.41-15.26zm44.75-49.93l-2.13 19.59 31.47 10.94s7.21-4.9 1.09-11.11-7-19.77-7-19.77z" fill="snow"/><path d="M241.74 708.79l-2.12.7 6.99 21.18 33.21-2.67s.13-.2.3-.55l-31.39 2.52z" opacity=".2"/><ellipse cx="600" cy="470.63" rx="93.09" ry="328.02" transform="rotate(-86.98 430.433 582.535)" opacity=".1"/></svg>